<svg xmlns="http://www.w3.org/2000/svg" xml:space="preserve" viewBox="0 0 1108.35 416.693">
	<path d="M416.249 124.041h22.355c8.666 0 17.575 3.969 17.575 14.417 0 6.48-4.05 10.773-9.962 12.554v.162c7.208.973 12.392 5.832 12.392 13.526 0 12.473-10.853 16.685-21.706 16.685h-20.654v-57.344zm10.205 23.325h9.072c6.803 0 10.448-2.835 10.448-7.775 0-5.103-3.645-7.127-11.339-7.127h-8.181v14.902zm0 25.433h9.153c5.264 0 12.797-1.054 12.797-8.586 0-5.993-4.13-8.099-12.392-8.099h-9.558v16.685zm77.191 8.585h-9.233v-6.236h-.163c-1.7 3.887-6.317 7.37-12.067 7.37-10.125 0-14.336-7.776-14.336-15.713v-24.298h9.719v21.544c0 4.617 1.053 10.367 7.29 10.367 6.155 0 9.071-5.345 9.071-10.528v-21.383h9.719v38.877zm11.666-38.877h9.313v6.479h.163c2.106-4.455 6.236-7.613 11.338-7.613.73 0 1.702.081 2.35.243v8.91c-1.296-.325-2.106-.406-2.997-.406-8.747 0-10.448 7.614-10.448 10.448v20.816h-9.719v-38.877zm67.631 0v35.394c0 14.012-6.805 22.921-21.949 22.921-6.318 0-14.255-2.267-19.277-6.398l5.589-7.532c3.726 3.563 8.747 5.508 13.607 5.508 9.395 0 12.311-5.67 12.311-13.365V176.2h-.161c-2.835 3.807-7.371 5.832-12.718 5.832-11.663 0-19.195-9.233-19.195-20.249 0-11.257 7.29-20.41 19.035-20.41 5.426 0 10.527 2.268 13.362 6.966h.162v-5.832h9.234zm-31.911 19.195c0 6.156 4.13 12.312 11.095 12.312 7.208 0 11.582-5.832 11.582-12.312 0-6.722-4.454-12.391-11.501-12.391-7.046.001-11.176 5.506-11.176 12.391m80.591 3.322H602.06c.403 5.506 5.427 9.556 11.096 9.556 4.858 0 8.099-1.943 10.286-5.021l6.479 5.183c-3.806 5.184-9.313 7.776-16.684 7.776-11.988 0-20.897-7.695-20.897-20.329 0-12.555 8.828-20.816 20.573-20.816 10.853 0 18.791 7.046 18.791 21.059 0 .89 0 1.7-.082 2.592m-9.638-6.965c0-5.022-2.834-9.396-9.153-9.396-5.75 0-10.367 3.969-10.771 9.396h19.924zm19.119-15.552h9.312v6.479h.163c2.105-4.455 6.236-7.613 11.338-7.613.73 0 1.702.081 2.35.243v8.91c-1.296-.325-2.105-.406-2.996-.406-8.747 0-10.448 7.614-10.448 10.448v20.816h-9.719v-38.877zm67.55 0v35.394c0 14.012-6.805 22.921-21.949 22.921-6.318 0-14.255-2.267-19.277-6.398l5.589-7.532c3.727 3.563 8.747 5.508 13.606 5.508 9.396 0 12.312-5.67 12.312-13.365V176.2h-.161c-2.835 3.807-7.371 5.832-12.718 5.832-11.662 0-19.194-9.233-19.194-20.249 0-11.257 7.29-20.41 19.034-20.41 5.426 0 10.527 2.268 13.362 6.966h.162v-5.832h9.234zm-31.911 19.195c0 6.156 4.129 12.312 11.095 12.312 7.208 0 11.582-5.832 11.582-12.312 0-6.722-4.454-12.391-11.501-12.391s-11.176 5.506-11.176 12.391m80.59 3.322H727.77c.403 5.506 5.427 9.556 11.096 9.556 4.858 0 8.099-1.943 10.286-5.021l6.479 5.183c-3.806 5.184-9.313 7.776-16.684 7.776-11.988 0-20.897-7.695-20.897-20.329 0-12.555 8.828-20.816 20.572-20.816 10.854 0 18.791 7.046 18.791 21.059 0 .89 0 1.7-.081 2.592m-9.638-6.965c0-5.022-2.834-9.396-9.153-9.396-5.75 0-10.367 3.969-10.771 9.396h19.924zm79.863-.973v24.298h-9.72V159.84c0-4.617-1.052-10.367-7.289-10.367-6.075 0-8.586 5.669-8.586 10.69v21.221h-9.718v-23.488c0-4.779-2.268-8.423-7.209-8.423-5.831 0-8.504 5.344-8.504 10.528v21.383h-9.72v-38.877h9.232v6.236h.162c1.702-3.806 5.832-7.37 12.069-7.37 5.992 0 9.962 2.997 12.148 7.37 2.592-4.697 6.965-7.37 12.797-7.37 10.126.001 14.338 7.776 14.338 15.713m48.358 7.938h-29.562c.403 5.506 5.427 9.556 11.096 9.556 4.859 0 8.099-1.943 10.286-5.021l6.479 5.183c-3.806 5.184-9.313 7.776-16.684 7.776-11.988 0-20.897-7.695-20.897-20.329 0-12.555 8.828-20.816 20.572-20.816 10.854 0 18.791 7.046 18.791 21.059 0 .89 0 1.7-.081 2.592m-9.638-6.965c0-5.022-2.834-9.396-9.153-9.396-5.75 0-10.367 3.969-10.771 9.396h19.924zm24.058-34.584c3.564 0 6.318 2.51 6.318 5.831 0 3.321-2.754 5.832-6.318 5.832-3.563 0-6.156-2.754-6.156-5.832 0-3.077 2.592-5.831 6.156-5.831m-4.779 19.032h9.721v38.877h-9.721v-38.877zm21.547 0h9.232v6.236h.162c1.702-3.887 6.318-7.37 12.069-7.37 10.124 0 14.336 7.776 14.336 15.713v24.298h-9.721V159.84c0-4.617-1.053-10.367-7.288-10.367-6.155 0-9.071 5.344-9.071 10.528v21.383h-9.72v-38.877zm86.666 38.877h-9.233v-5.832h-.163c-2.672 4.455-7.937 6.966-13.363 6.966-11.825 0-19.114-9.396-19.114-20.735 0-11.501 7.774-20.41 18.871-20.41 7.128 0 11.016 3.564 13.04 6.074h.243v-27.295h9.72v61.232zm-20.816-6.966c7.127 0 11.419-6.398 11.419-12.473 0-6.074-4.292-12.634-11.419-12.634-7.533 0-11.177 6.398-11.177 12.472 0 6.075 3.644 12.635 11.177 12.635m69.657-9.394h-29.563c.405 5.506 5.428 9.556 11.096 9.556 4.859 0 8.101-1.943 10.286-5.021l6.48 5.183c-3.808 5.184-9.315 7.776-16.685 7.776-11.987 0-20.896-7.695-20.896-20.329 0-12.555 8.828-20.816 20.572-20.816 10.853 0 18.791 7.046 18.791 21.059 0 .89 0 1.7-.081 2.592m-9.639-6.965c0-5.022-2.834-9.396-9.151-9.396-5.75 0-10.367 3.969-10.772 9.396h19.923zm-616.722 61.982h22.355c8.666 0 17.575 3.969 17.575 14.417 0 6.479-4.05 10.772-9.962 12.554v.162c7.208.973 12.392 5.832 12.392 13.526 0 12.473-10.853 16.685-21.706 16.685h-20.654v-57.344zm10.205 23.326h9.072c6.803 0 10.448-2.835 10.448-7.775 0-5.103-3.645-7.127-11.339-7.127h-8.181v14.902zm0 25.432h9.153c5.264 0 12.797-1.054 12.797-8.586 0-5.993-4.13-8.099-12.392-8.099h-9.558v16.685zm78.73-7.775h-29.563c.405 5.507 5.427 9.557 11.096 9.557 4.86 0 8.1-1.943 10.286-5.021l6.48 5.184c-3.807 5.184-9.315 7.775-16.685 7.775-11.987 0-20.896-7.694-20.896-20.329 0-12.555 8.828-20.815 20.572-20.815 10.854 0 18.791 7.046 18.791 21.059 0 .889 0 1.698-.081 2.59m-9.639-6.966c0-5.021-2.834-9.396-9.152-9.396-5.75 0-10.367 3.969-10.772 9.396h19.924zm19.118-15.551h9.314v6.479h.162c2.107-4.455 6.236-7.613 11.339-7.613.729 0 1.701.081 2.35.243v8.91c-1.296-.325-2.107-.406-2.998-.406-8.747 0-10.448 7.613-10.448 10.448v20.815h-9.719v-38.876zm29.484 0h9.232v6.236h.162c1.702-3.888 6.318-7.37 12.069-7.37 10.124 0 14.336 7.775 14.336 15.713v24.298h-9.72V255.84c0-4.617-1.054-10.367-7.289-10.367-6.155 0-9.071 5.345-9.071 10.528v21.383h-9.719v-38.877zM179.55 148.541c0-.501.196-1.048.65-1.536 1.211-1.303 3.137-1.239 4.733-.84 1.394.349 2.969.917 3.781 2.174.844 1.305.64 2.77-.158 4.521-1.954-1.456-4.006-2.502-5.915-3.128-.947-.312-2.004-.539-2.535-.659-.265-.06-.556-.251-.556-.532m-28.3 14.672a45.12 45.12 0 0 1 1.087 2.531c.25.632.532.999 1.255 1.036 3.863.199 7.87.746 11.533 2.03 1.3.455 2.07.741 3.292 1.375.699.361 2.452 1.585 2.953.458.491-1.106-1.802-1.974-2.53-2.346a35.062 35.062 0 0 0-6.738-2.595c-2.437-.662-4.57-1.116-6.593-2.727-1.292-1.03-2.386-2.265-3.389-3.57-.305-.397-.612-.804-1.161-.87-1.076-.128-1.66 1.053-1.15 1.912a31.82 31.82 0 0 1 1.441 2.766m9.635-2.666c.266.639-.619 1.991-.9 2.573-.407.847-.746.514-.989-.276-.23-.744-.347-2.199.194-2.855.404-.489 1.502.105 1.695.558m2.849 1.212c.269.637-.616 1.99-.895 2.57-.409.848-.747.522-.992-.272-.228-.745-.346-2.199.196-2.855.402-.487 1.5.108 1.691.557m68.504 69.127c.791 2.027-1.701 3.263-3.098 4.053-1.312.743-3.938 1.768-5.464.78-.69-.448-1.205-1.201-1.657-1.872-.225-.336-.931-.85-1.494-.538-.8.444 1.025 2.5 1.375 2.888.2.219.413.429.647.612a2.192 2.192 0 0 1-.538.549c-.58.413-1.267.446-1.954.438-2.452-.024-4.882-.312-7.286-.798-.982-.198-1.962-.482-2.972-.351-1.261.165-2.079.967-3.161 1.528-1.206.623-1.634-.443-1.095-1.396.548-.97 1.476-1.737 2.314-2.444.608-.515 2.287-1.256.789-1.758-1.18-.395-2.594.473-3.596.998-.441.23-1.575.923-1.987.304-.283-.429.074-1.13.357-1.48.881-1.094 2.292-1.771 3.571-2.263-.732-1.274-2.412-.905-3.57-.552-.498.153-1.467.716-1.971.391-.462-.299-.097-.963.121-1.309 1.287-2.046 3.722-2.712 6.021-2.437-.023-1.503-1.004-2.086-2.397-2.12-1.113-.028-3.499.354-2.292-1.467 1.916-2.893 5.695-1.847 8.095-.223-.653.278-2.738 1.929-1.431 2.663.493.277 1.148.22 1.692.244.644.029 1.276.2 1.849.494 1.34.691 1.857 1.795 2.378 3.132.546 1.406 1.815 1.435 3.139 1.193 4.111-.743 11.282-5.265 13.615.741M191.256 78.805c-3.581.453-8.664 1.214-12.15 1.911l-.16-.728s3.619-3.456 7.244-4.445c3.666-1.02 5.066 3.262 5.066 3.262m-1.334-7.175c-3.578.433-8.66 1.197-12.15 1.899l-.176-.733s3.632-3.442 7.264-4.448c3.663-1.026 5.062 3.282 5.062 3.282m-13.504-5.295-.162-.731s3.639-3.438 7.254-4.446c3.674-1.013 5.068 3.281 5.068 3.281-3.582.441-8.652 1.2-12.16 1.896m12.414 131.69c.041.458.243.904.471 1.297-.353.357-.847.551-1.338.617-.27.036-1.042-1.554-1.474-1.784-.873-.463-.549.993-.393 1.39.195.497.314.616-.271.854-.216.085-.99.394-1.113.158-.363-.695-.991-1.548-1.861-1.548-.613.309.084 1.578.338 1.98-1.094.575-4.208 2.349-4.212-.149-.002-1.078-.389-2.631-1.065-3.49-2.925-3.725-8.043-2.53-11.552-2.974-.741-.094-1.465-.356-1.95-.575-.321-.147-.414-1.286-.439-2.019-.03-.87-.299-1.771-.752-2.471-.299-.462-.756-.952-1.062-1.172-.307-.22-.488-.304-.702-.406-.741-.356.815-.477 1.013-.485 1.329-.055 2.491.17 3.15 1.382.34.625.176.699.544 1.317.552.924 1.512 1.304 2.567 1.176 2.76-.335 5.41-2.431 7.731-3.806 2.856-1.694 5.026-3.53 7.738-4.218 1.353-.344 1.823.232 2.737 1.163 1.063 1.084 2.057 2.484 2.765 3.829 1.55 2.942 2.657 6.254 2.563 10.495a6.965 6.965 0 0 1-1.505.575 5.11 5.11 0 0 0-.615-1.004c-.366-.457-1.417-1.261-1.313-.132m34.611-75.287c2.523-.303 6.049-.834 8.492-1.325l.122.516s-2.528 2.423-5.072 3.125c-2.569.694-3.542-2.316-3.542-2.316m-84.387 74.073c0 26.956 5.927 48.125 17.614 62.917 11.967 15.146 29.344 22.825 51.651 22.825 22.307 0 39.684-7.68 51.651-22.825 11.688-14.793 17.613-35.962 17.613-62.917v-57.312l-69.264.001-69.263-.001-.002 57.312zm69.265 83.338c-40.492 0-63.897-26.108-66.595-73.804l101.828 64.909c-9.677 5.862-21.461 8.895-35.233 8.895m0-138.247h66.861v51.039l-80.066-51.039h13.205zm-66.86 0h49.184l84.537 53.888v1.02c0 35.23-10.206 60.083-29.382 73.025l-104.2-66.421a169.566 169.566 0 0 1-.141-6.604l.002-54.908zm81.04-23.286c2.504-.299 6.061-.83 8.495-1.332l.123.52s-2.536 2.403-5.068 3.107c-2.566.705-3.55-2.295-3.55-2.295m-38.744 7.501c2.46.492 5.988 1.034 8.504 1.326 0 0-.965 2.996-3.557 2.313-2.513-.715-5.062-3.133-5.062-3.133l.115-.506zm8.84-40.107c-3.583.449-8.644 1.195-12.156 1.894l-.154-.726s3.611-3.458 7.239-4.444c3.67-1.014 5.071 3.276 5.071 3.276m31.783 41.433c2.518-.292 6.046-.834 8.505-1.326l.116.506s-2.548 2.418-5.061 3.133c-2.593.683-3.56-2.313-3.56-2.313m-30.432-34.255c-3.582.453-8.646 1.2-12.15 1.916l-.178-.744s3.638-3.447 7.257-4.438c3.69-1.021 5.071 3.266 5.071 3.266m-47.082 97.56c.22-1.9 6.189.067 7.033.463.216-1.505-.826-2.7-1.93-3.572a15.676 15.676 0 0 0-1.872-1.245c-.487-.284-1.367-.599-1.602-1.15-.691-1.618 2.517-1.342 3.239-1.252 1.97.248 3.819.993 5.415 2.173.088-1.535.065-3.262-1.096-4.424-.487-.487-1.099-.83-1.715-1.125-1.256-.599.277-1.418 1.019-1.418 1.963 0 3.588.952 4.861 2.388.576.649 1.05 1.417 1.69 2.003.753.688 1.532 1.209 1.927 2.194-1.32-.181-5.122-.057-4.946 2.073.067.821 1.331.957 1.932 1.239.798.373 1.318 1.021 1.515 1.884.411 1.8-.211 3.659 1.954 4.424 2.262.799 4.771.516 7.124.689 1.846.134 4.013.47 5.209 2.044 1.548 2.037.868 4.451-1.492 5.353-2.279.874-4.854.579-7.214.263-1.13-.151-.207.022-1.321-.218-.542-.115-3.219-.465-3.625-.903-.518-.559-.262-1.927-.262-2.609 0-1.811-.418-2.259-1.034-2.542-.933-.428-.495 1.216-.477 1.555.052 1.039-.158 2.079.008 3.115-2.187-.436-4.098-1.305-5.968-2.495-1.857-1.178-3.822-2.205-5.659-3.403-1.199-.779-.87-1.713.483-1.816.497-.039 2.372.297 2.288-.356-.119-.937-1.67-1.375-2.388-1.641-.583-.218-3.199-.8-3.096-1.691m38.782-73.464c2.433.502 5.988 1.033 8.494 1.332 0 0-.983 3-3.552 2.295-2.531-.704-5.065-3.107-5.065-3.107l.123-.52zm-.942 4.13c2.444.491 5.971 1.022 8.493 1.325 0 0-.972 3.009-3.54 2.316-2.546-.702-5.074-3.125-5.074-3.125l.121-.516zm48.427-60.256c3.613 1.008 7.252 4.446 7.252 4.446l-.16.731c-3.51-.696-8.578-1.455-12.16-1.896 0 0 1.392-4.293 5.068-3.281m-1.351 7.19c3.632 1.006 7.265 4.448 7.265 4.448l-.177.733c-3.489-.702-8.571-1.466-12.149-1.899 0 0 1.399-4.308 5.061-3.282m81.92 30.782c-23.23-25.818-54.894-42.206-89.162-46.143-2.171-.248-3.823.982-4.281 3.235l-7.515 40.126c-.402 2.406-.297 3.986 1.462 5.497l4.68 3.532-4.676.801 6.376 28.063 1.076.006.212.001c7.324 0 23.649-1.985 29.261-6.691.847-.709 2.955-5.782 6.266-15.079 27.582 16.68 45.89 46.972 45.89 81.324 0 52.363-42.603 94.965-94.969 94.965-52.367 0-94.97-42.602-94.97-94.965 0-34.406 18.368-64.741 46.022-81.407 2.407 6.752 5.225 14.202 6.232 15.046 5.583 4.68 21.858 6.656 29.161 6.656l.213-.001.954-.005 6.312-27.79-4.659-.798 4.911-3.707c1.698-1.465 1.802-3.044 1.398-5.471l-7.516-40.122c-.455-2.235-2.103-3.465-4.279-3.216-34.267 3.937-65.932 20.325-89.16 46.143-23.442 26.056-36.352 59.677-36.352 94.672 0 78.15 63.581 141.729 141.733 141.729 78.151 0 141.732-63.579 141.732-141.729 0-34.994-12.91-68.615-36.352-94.672m-90.953 32.403-5.264-23.169 4.368-.749 2.856 2.156c-1.444.221-2.886.42-4.089.564 0 0 .983 2.999 3.549 2.295.929-.26 1.856-.748 2.66-1.26l2.54 1.916c-2.384.461-5.526.924-7.808 1.198 0 0 .982 3 3.549 2.294 2.191-.609 4.381-2.488 4.931-2.983l17.247 13.014c-5.683 2.838-17.171 4.597-24.539 4.724m26.662-6.134-33.696-25.423c-.317-.274-.536-.525-.657-.902a94.352 94.352 0 0 1 39.956 12.032c-2.26 6.341-4.788 12.93-5.603 14.293m-50.07-17.158-5.326 23.447c-7.404-.112-19.069-1.897-24.792-4.781l17.377-13.113c.551.495 2.741 2.375 4.932 2.984 2.567.706 3.549-2.294 3.549-2.294-2.282-.274-5.425-.737-7.808-1.199l2.54-1.917c.805.514 1.728 1.002 2.658 1.262 2.567.704 3.551-2.295 3.551-2.295a135.026 135.026 0 0 1-4.092-.563l3.024-2.284 4.387.753zm1.649-8.315-33.88 25.564c-.814-1.349-3.351-7.956-5.623-14.334 11.961-6.793 25.563-11.065 40.104-12.082-.112.367-.315.603-.601.852m7.332 233.201c-76.826 0-139.328-62.501-139.328-139.325 0-70.835 53.042-130.345 123.38-138.425.583-.069 1.384-.004 1.648 1.288l7.493 40.006c-50.889 3.51-90.566 45.925-90.566 97.131 0 53.688 43.68 97.369 97.372 97.369s97.374-43.681 97.374-97.369c0-51.206-39.677-93.617-90.566-97.131l7.489-39.987c.267-1.31 1.062-1.378 1.649-1.307 70.34 8.08 123.383 67.59 123.383 138.425 0 76.824-62.502 139.325-139.328 139.325m22.13-257.584c3.627.989 7.246 4.445 7.246 4.445l-.162.728c-3.487-.697-8.571-1.458-12.151-1.911 0 0 1.402-4.282 5.067-3.262m-70.532 79.149c-.876.278-2.453.901-2.453 1.996 0 1.082 1.26 1.561 2.089 1.908 1.008.422 2.016.846 3.017 1.285 2.258.987 4.518 2.03 6.585 3.387 1.671 1.096 3.391 2.491 4.164 4.396.637 1.575.536 3.479-1.025 4.445-2.093 1.294-5.098.944-7.396.606-.948-.14-2.176-.197-2.92-.871-.552-.501-1.404-2.891-2.24-2.557-.874.35-.045 2.639.085 3.221.156.699.314 1.412.328 2.133.445.23.928.398 1.416.515.919.222 1.88.162 2.818.196 5.921.212 12.04 1.272 17.432 3.801 3.265 1.534 6.305 3.714 8.344 6.737 2.911 4.317 4.143 10.209 3.374 15.318-.555 3.687-1.959 7.189-3.775 10.425-.581 1.036-1.168 2.361-1.989 3.23-.275.29-1.123.837-1.546.659-.516-.216-.648-.896-.382-1.176.372-.389.832-.301 1.127-.774.311-.501.618-1.004.918-1.513-.977-.105-1.839-.09-2.163-1.245-.233-.83.127-1.431-.386-2.249-1.062-1.699-3.674-2.617-5.614-2.525-.493.027-.966.431-.751.954.194.476.781.699 1.138 1.038.702.665 1.487 1.686 1.642 2.672.19 1.196-.955.774-1.516.408-.913-.596-1.958-1.126-3.044-1.295a4.982 4.982 0 0 0-2.543.301c-.686.279-2.122 1.667-.853 2.157 1.031.398 2.195.05 3.253.455.702.269 1.336.746 1.75 1.379.789 1.232-1.271 1.246-1.922 1.368-.975.186-1.876.688-2.492 1.475-.219.281-.975 1.366-.399 1.627.923.421 2.494.065 3.472.078.663.009 1.617-.066 2.124.453.127.131.378.541.256.751-.084.149-1.379.323-1.603.421-.827.356-.632.902.048 1.327.529.327 1.137.533 1.738.683.179.045.95-1.055 1.213-1.219.63-.396 1.543-.143 1.765.627.218.75-1.003 1.059-1.505 1.173 2.835 1.481 6.331 2.19 9.443 1.225 3.038-.942 5.782-2.675 8.011-4.935 1.264-1.281 2.405-2.731 3.268-4.316.196-.359-.127-.493-.293-.854-.279-.612.749-.449 1.114-.396.427-.612.836-1.243 1.197-1.899.223-.407-.107-.378-.428-.622-.264-.2-.713-.409-.65-.732.063-.32 1.232-.229 1.837-.208.459-.645.804-1.382 1.152-2.09-.622-.241-1.728-.841-1.588-1.239.14-.399 1.367-.365 2.076-.323.536.031.969-1.393 1.143-1.833-.386-.136-1.991-.601-2.011-1.123-.031-.787 2.345-.748 2.76-.719.514-1.62.92-3.316 1.047-5.012.169-2.244-1.092-4.284-.599-6.532.096-.431.597-2.029 1.307-1.53.352.247.493.936.399 1.234-.216.673-.272 1.398-.084 2.086.301 1.102 1.236 1.885 1.387 3.057.134 1.067-.259 2.199-.652 3.172-.255.625-.534 1.118.012 1.728.659.737 1.217.883 2.14.973 5.432.541 10.954-1.234 16.065 1.369 1.106.561 2.796 1.559 2.537 3.038-3.28-1.607-8.206-3.01-11.519-.816-1.769 1.171-2.787 3.426-2.776 5.512.016 2.873 1.561 5.559 2.782 8.07.819 1.687 2.673 5.031.064 6.098-1.162.475-2.423-.325-3.411-.865-1.244-.669-2.103-1.082-2.868-1.242-.861-.181-1.941.101-2.3.305-.242.136-.267.375.426.553 2.026.518 3.468 1.788 4.32 4.267.184.532.668.626 1.951.298 1.47-.377 2.584-.745 3.96-1.236 2.177-.778 5.188-1.461 7.448-.657.84.297 1.818 1.045 2.379 1.736.291.36.62.894.814 1.315.212.459.386.911.594 1.262.164.276.587-.117.794-.354.879-1.003 1.521-2.225 2.041-3.443.469-1.108.593-2.315.116-3.44-.415-.973-1.237-1.66-1.704-2.59-.941-1.875-.439-3.694-.439-5.681 0-2.774-.897-5.757-.897-6.697 0-2.578 1.698-7.348 1.698-8.829 0-1.002-.282-1.604-.595-1.96-.278-.314-.673-.367-.763-.771-.1-.449.571-.837.91-.656.571.307 1.103.764 1.441 1.323 1.117 1.851.125 4.302-.213 6.252-.36 2.073-.471 4.402-.039 7.837.681 5.431 4.296 16.082 9.825 22.954 1.207 1.499.472 4.444.159 6.175-.223 1.232-1.25 4.394-2.706 4.394-1.177 0-2.1-1.273-3.024-1.869-1.188-.768-2.643-1.159-4.033-.771-.946.264-3.951 1.862-2.881 3.303.332.439 1.007.182 1.418.028.718-.268 1.414-.562 2.194-.367a2.196 2.196 0 0 1 1.49 1.32c-2.409.391-4.515 2.274-5.675 4.335-.343.604-.64 1.737.07 2.21.868.576 1.629-.106 2.181-.728.888-1.003 2.934-2.882 4.225-1.411a12.178 12.178 0 0 0-2.336 2.746c-.457.736-.85 1.573-.891 2.452-.02.391.011.94.283 1.251.595.679 1.31-.309 1.604-.74.613-.9 2.434-3.48 3.889-2.524.248.163-1.135 2.331-1.283 2.688-.276.656-.564 1.439-.433 2.163.218 1.21 1.367.79 1.894.025.651-.949 1.476-1.86 2.566-2.297.901-.362 1.773-.207 2.699-.326 1.925-.247 3.819-1.888 4.999-3.34 1.15-1.416 2.107-3 3.043-4.564.987-1.646 2.011-3.302 2.782-5.064 1.134-2.592 2.412-5.567 2.394-8.442-.002-.526-.062-1.084-.312-1.555-.3-.561-.879-.931-1.219-1.48-.945-1.516-1.338-3.377-1.62-5.119a32.013 32.013 0 0 1-.276-2.23c-.033-.396.053-.877-.258-1.136-.74-.618-1.588-1.419-1.841-2.383.11-.495 1.154-.121 1.425.192.809-1.251.16-2.411-1.018-3.082.242-.354.612-.646 1.037-.738.78-.17-.015-1.35-.391-1.675-.151-.131-1.309-1.121-.954-1.342.474-.296 1.133-.003 1.542.268.75-1.573-.037-2.733-1.55-3.203.653-.159 1.322-.372 1.656-1.021a1.56 1.56 0 0 0 .154-.864c-.06-.699-.207-.603-.764-.816a3.248 3.248 0 0 1-1.033-.66c.371-.087 1.735-.438 1.536-.883a67.349 67.349 0 0 1-.871-2.037c-.692-1.703-1.52-3.556-1.659-5.411 2.157.033 2.272 3.703 3.955 4.6.969.518 2.248-.049 2.125-1.218-.079-.747-.458-1.533-.945-2.102.72-.564 1.426.625 1.718 1.131.553.958 1.607-.576 1.185-1.396-.241-.462-.69-.793-1.127-1.059-.127-.078-.831-.343-.868-.478-.1-.364.654-.369.808-.338.445.095.804.456.97-.159.577-2.121-2.987-3.903-4.464-4.485-1.9-.745-4.094-.835-6.115-.829-.282 0-.508-.643-.645-.864a40.076 40.076 0 0 0-1.835-2.714 50.698 50.698 0 0 0-8.013-8.592c-4.25-3.616-9.082-6.335-14.201-8.524-3.499-1.496-7.147-2.776-10.893-3.493a15.567 15.567 0 0 0-1.499-.236c-.103-.01-.28-.401-.331-.476a16.98 16.98 0 0 0-1.197-1.596c-1.293-1.543-2.853-2.925-4.681-3.798-2.381-1.137-4.701-.301-7.123.526-1.226.419-2.416.928-3.599 1.452-.628.278-1.36.702-2.071.53-.664-.159-.327-1.159.159-1.272 1.854-.439 4.055-1.697 4.937-3.435 1.353-2.666-1.328-5.896-3.728-6.855-2.042-.818-5.561-.476-7.06 1.349-4.302-4.917-11.903-7.047-18.09-5.128-1.685.524-3.207 1.338-4.802 2.067-2.368 1.079-4.118-.068-6.078-1.343-.419-.271-.822-.571-1.286-.761-.906-.366-2.332-.093-2.062 1.209.234 1.137 1.492 2.009 2.436 2.57m66.401 41.642c.06 0 .477.079.93.216.718.215 1.286.433 1.979.684.426.158.883.324 1.409.506.337.119.67.241 1.001.363.54.198 1.098.402 1.659.581 1.013.319.625 1.7.447 2.273-.048.157-.1.32-.136.487l-.067.297c-.066.296-.114.51-.149.864-.006.057-.01.128-.014.201-.022.403-.053.957-.498.957-.21 0-.384-.163-.497-.286-.653-.715-1.367-1.404-2.058-2.07l-.143-.135a223.265 223.265 0 0 0-2.687-2.549c-1.085-1.026-1.426-1.77-1.458-1.878-.062-.219-.009-.511.282-.511m-45.583-30.815c-1.111 0-3.238-.526-4.548-1.968-.903-.993-1.286-2.242-1.145-3.714.032-.319.083-.852.656-.852.101 0 .215.016.346.052.365.099.749.207 1.112.312l.665.186.212.06-.079.205c-.396 1.051-.329 2.043.191 2.793.568.821 1.625 1.294 2.898 1.294 1.412 0 2.345-.988 2.378-2.519l.006-.258.249.07c.083.023.216.052.363.083.146.029.305.063.451.098.331.082.52.291.479.531-.201 1.262-1.65 3.627-4.234 3.627m-7.422-9.888c.371-.648 2.214-1.078 2.86-1.078.146 0 .305.015.386.137.119.177-.046.316-.238.476-.102.085-.412.345-.415.444 0 .203 0 .245.317.339 3.33 1.001 7.23 1.997 9.558 2.546.765.182.997.595.959.922-.045.389-.435.671-.927.671-.153 0-.31-.026-.466-.08-2.164-.735-6.888-2.024-10.76-3.065-.674-.179-1.145-.488-1.293-.842a.53.53 0 0 1 .019-.47m54.448-65.71c3.619.991 7.258 4.438 7.258 4.438l-.178.744c-3.504-.716-8.568-1.463-12.148-1.916 0 .001 1.381-4.286 5.068-3.266m1.354-7.187c3.628.986 7.238 4.444 7.238 4.444l-.154.726c-3.512-.699-8.575-1.445-12.157-1.894 0 0 1.401-4.29 5.073-3.276m-82.739-7.484a65.847 65.847 0 0 1 3.965-1.599 344.01 344.01 0 0 0 3.649 7.008 219.976 219.976 0 0 0 3.852 6.89c.398.681.794 1.344 1.189 1.988.395.648.789 1.308 1.186 1.99.381.653.791 1.39 1.232 2.208.442.819.949 1.536 1.527 2.146.575.613 1.232 1.023 1.973 1.23.742.207 1.601.023 2.582-.546l1.04 1.691a1078.216 1078.216 0 0 1-5.703 3.406 1050.306 1050.306 0 0 1-5.722 3.364 26.87 26.87 0 0 1-3.573 1.754c-1.185.472-2.324.707-3.419.707-1.094 0-2.139-.294-3.137-.877-.998-.587-1.91-1.588-2.734-3.001-.906-1.553-1.176-3.128-.813-4.725.363-1.599 1.191-2.977 2.486-4.13-2.044 1.117-4.017 1.457-5.918 1.015-1.898-.445-3.443-1.686-4.633-3.726-.937-1.608-1.333-3.145-1.186-4.617a9.064 9.064 0 0 1 1.442-4.094c.816-1.263 1.849-2.411 3.104-3.451a28.288 28.288 0 0 1 3.84-2.705 37.167 37.167 0 0 1 3.771-1.926m2.584 10.996a68.31 68.31 0 0 1-2.14-3.431 12.13 12.13 0 0 0-.726-1.108 3.46 3.46 0 0 0-.88-.854 2.08 2.08 0 0 0-1.053-.347c-.373-.018-.805.119-1.295.402-.654.382-1.139.847-1.458 1.396a4.183 4.183 0 0 0-.553 1.772 6.024 6.024 0 0 0 .166 1.928c.162.652.41 1.266.744 1.836.983 1.688 2.123 2.813 3.415 3.372 1.292.56 2.837.315 4.634-.732.217-.127.431-.261.64-.402.211-.139.424-.274.643-.401a68.635 68.635 0 0 0-2.137-3.431m8.041 14.734a6.27 6.27 0 0 1 .498-.32l-5.046-8.655a2.469 2.469 0 0 0-.431.195c-.165.096-.314.182-.45.263l-.368.213c-.654.382-1.133.827-1.438 1.331a3.395 3.395 0 0 0-.499 1.635c-.026.577.054 1.17.24 1.772.188.603.447 1.189.781 1.761.729 1.252 1.608 2.117 2.635 2.595 1.026.478 2.219.319 3.58-.474.163-.095.328-.202.498-.316m-40.461 27.028a329.642 329.642 0 0 0-6.559-6.066 54.163 54.163 0 0 1-1.663-1.561 13.396 13.396 0 0 1-1.469-1.705c-.906-1.197-1.498-2.42-1.779-3.668a9.476 9.476 0 0 1-.113-3.696c.204-1.215.636-2.406 1.296-3.572a18.853 18.853 0 0 1 2.444-3.366c1.349-1.498 2.691-2.717 4.027-3.654 1.336-.94 2.691-1.522 4.063-1.749 1.371-.228 2.779-.083 4.221.431s2.944 1.475 4.503 2.88a116.594 116.594 0 0 1 4.267 4.033 120.882 120.882 0 0 0 4.264 4.03c.61.551 1.18.989 1.707 1.313.526.326 1.047.509 1.562.55.516.04 1.054-.079 1.614-.36.561-.281 1.158-.751 1.791-1.407l1.323 1.191a31.955 31.955 0 0 1-3.198 4.753 112.781 112.781 0 0 1-3.723 4.344l-14.203-12.663a20.65 20.65 0 0 0-2.584-2.01c-.851-.553-1.703-.899-2.558-1.032-.855-.136-1.723-.025-2.602.328-.879.354-1.781 1.047-2.71 2.075-1.221 1.358-1.946 2.594-2.172 3.703-.225 1.112-.128 2.154.294 3.129.422.974 1.086 1.911 1.992 2.811a79.979 79.979 0 0 0 2.92 2.758 210.046 210.046 0 0 0 6.305 5.455 306.914 306.914 0 0 0 6.494 5.243l-3.32 3.689a561.978 561.978 0 0 0-6.434-6.207m-31.918 14.757c2.52-.118 5.061-.302 7.559-.413 2.5-.114 5-.284 7.503-.515l.159-.343-12.242-5.703 3.66-6.801a386.938 386.938 0 0 1 8.604 4.521c2.9 1.567 5.868 3.054 8.9 4.458.514.236 1.031.493 1.547.765.515.274 1.029.53 1.543.767a13.4 13.4 0 0 0 1.841.694 5.582 5.582 0 0 0 1.815.243 3.198 3.198 0 0 0 1.625-.526c.496-.327.918-.859 1.26-1.603l1.931.892a989.048 989.048 0 0 1-5.708 12.565 24.986 24.986 0 0 1-1.855 3.334c-.692 1.051-1.501 1.91-2.416 2.58a6.642 6.642 0 0 1-3.071 1.236c-1.131.152-2.411-.099-3.84-.761-1.945-.901-3.314-2.124-4.108-3.671-.795-1.547-1-3.378-.611-5.491-1.088.021-2.17.091-3.25.216a96.435 96.435 0 0 1-3.248.32l-1.847.11c-.696.043-1.403.107-2.12.19-2.023.235-4.236.73-5.147 2.765l-1.76-.815 3.276-9.014zm22.875 8.468a5.11 5.11 0 0 0 1.771.115 3.275 3.275 0 0 0 1.556-.608c.469-.338.863-.85 1.18-1.538l.793-1.716-10.337-4.781a5.516 5.516 0 0 0-.244.356 3.265 3.265 0 0 0-.199.378c-.41.885-.59 1.686-.541 2.406.051.717.26 1.368.632 1.956a5.838 5.838 0 0 0 1.483 1.573c.621.46 1.318.869 2.09 1.228.6.277 1.206.485 1.816.631m-33.047 34.091a46.134 46.134 0 0 1 .305-5.507c.285-2.441.862-4.673 1.731-6.698.869-2.025 2.033-3.721 3.495-5.09 1.458-1.37 3.209-2.379 5.251-3.029 2.043-.652 4.378-.824 7.008-.518 2.91.336 5.336 1.167 7.277 2.487 1.938 1.318 3.469 2.962 4.588 4.933 1.12 1.969 1.846 4.179 2.18 6.628.335 2.451.351 4.957.054 7.526a35.363 35.363 0 0 1-.66 3.847 20.479 20.479 0 0 1-1.209 3.643l-7.521-2.015.212-1.832c1.023-.071 1.906-.222 2.646-.452.74-.232 1.352-.573 1.833-1.025.48-.451.857-1.036 1.129-1.748.275-.715.469-1.573.585-2.574.204-1.751.019-3.312-.552-4.678a9.737 9.737 0 0 0-2.492-3.527c-1.091-.982-2.365-1.765-3.818-2.345a17.968 17.968 0 0 0-4.577-1.152c-2.006-.23-3.832-.207-5.482.078-1.652.284-3.097.845-4.336 1.685-1.238.838-2.244 1.977-3.013 3.41-.768 1.434-1.274 3.183-1.513 5.247l-.072.612c-.024.216-.019.44.019.667l11.366 1.273-.827 7.136a48.95 48.95 0 0 0-4.205-.679c-1.472-.171-2.931-.31-4.376-.414a99.863 99.863 0 0 1-4.378-.412 23.903 23.903 0 0 1-.648-5.477m3.621 41.505a159.541 159.541 0 0 0-1.03-6.679 356.648 356.648 0 0 0-1.077-5.86c-.373-1.951-.749-3.9-1.123-5.847a356.87 356.87 0 0 0 11.942-1.544 441.715 441.715 0 0 0 11.877-1.917 11.917 11.917 0 0 0 1.837-.468c.543-.192.998-.462 1.369-.816s.635-.794.801-1.317c.162-.523.207-1.182.133-1.967l1.955-.343 3.377 19.227-3.865.679a65.734 65.734 0 0 0-.228-3.486 43.257 43.257 0 0 0-.468-3.494l-.158-.885a7.548 7.548 0 0 0-.192-.83l-9.495 1.668 1.457 7.756-3.705.221-1.152-7.38-6.424 1.129c-.776.136-1.448.269-2.016.399-.57.133-1.021.34-1.354.624-.335.28-.546.679-.632 1.188-.086.514-.051 1.217.107 2.118l.401 2.28c.137.776.303 1.363.501 1.762.198.395.458.694.781.894.323.196.729.325 1.219.386.491.056 1.078.122 1.762.194l.327 1.861-6.927.447zm37.96 64.53a46.53 46.53 0 0 1-4.049-3.746c-1.7-1.775-3.053-3.643-4.059-5.602-1.006-1.962-1.572-3.94-1.695-5.938-.126-1.997.213-3.991 1.013-5.979.799-1.987 2.155-3.898 4.067-5.728 2.115-2.029 4.299-3.371 6.553-4.023 2.254-.653 4.496-.785 6.727-.392 2.232.393 4.398 1.241 6.497 2.548 2.102 1.301 4.045 2.887 5.834 4.752a34.471 34.471 0 0 1 2.543 2.962 20.31 20.31 0 0 1 2.037 3.254l-6.347 4.511-1.276-1.332c.598-.834 1.043-1.609 1.338-2.328.293-.717.418-1.406.377-2.064-.041-.659-.25-1.32-.626-1.986-.376-.665-.912-1.359-1.61-2.088-1.221-1.275-2.539-2.129-3.957-2.562a9.8 9.8 0 0 0-4.305-.323c-1.454.212-2.867.695-4.242 1.447a17.708 17.708 0 0 0-3.805 2.795c-1.455 1.395-2.599 2.816-3.433 4.271-.832 1.454-1.323 2.925-1.465 4.416-.143 1.489.092 2.986.707 4.494.614 1.505 1.641 3.009 3.08 4.512l.426.442c.151.16.326.298.525.412l8.226-7.948 4.969 5.188a48.541 48.541 0 0 0-3.203 2.807 103.511 103.511 0 0 0-3.107 3.11 95.9 95.9 0 0 1-3.108 3.109 23.98 23.98 0 0 1-4.632-2.991m34.762 23.39a165.783 165.783 0 0 0-5.808-3.457 387.647 387.647 0 0 0-5.204-2.896l-5.227-2.855a347.558 347.558 0 0 0 6.406-10.195 430.76 430.76 0 0 0 6.076-10.383c.342-.601.614-1.174.811-1.715a3.774 3.774 0 0 0 .24-1.573 3.021 3.021 0 0 0-.506-1.454c-.3-.462-.778-.91-1.433-1.354l.98-1.728 16.981 9.626-1.936 3.414a64.072 64.072 0 0 0-2.835-2.041 42.02 42.02 0 0 0-2.993-1.862l-.781-.442a7.425 7.425 0 0 0-.764-.378l-4.755 8.387 6.911 3.811-2.187 2.998-6.426-3.808-3.217 5.676a33.685 33.685 0 0 0-.972 1.811c-.263.522-.389 1.002-.383 1.438.004.438.176.855.515 1.246.341.391.909.812 1.704 1.262l2.013 1.143c.685.391 1.244.634 1.676.734.432.1.828.088 1.188-.035.358-.119.716-.353 1.073-.694.356-.34.78-.751 1.27-1.233l1.645.932-4.062 5.625zm45.048 12.458c.244-3.861.529-7.715.852-11.562.324-3.848.606-7.701.852-11.565a376.984 376.984 0 0 0-6.505 10.02 596.961 596.961 0 0 0-6.252 10.211l-3.581-.641a372.33 372.33 0 0 1-2.565-11.794 238.646 238.646 0 0 0-2.666-11.764c-.934 3.769-1.9 7.511-2.902 11.22a252.143 252.143 0 0 0-2.772 11.291l-5.008-1.69a94.542 94.542 0 0 0 2.319-5.395c.8-2.048 1.57-4.114 2.312-6.188.74-2.073 1.419-4.162 2.036-6.262a61.18 61.18 0 0 0 1.511-6.403l.059-.325c.158-1.399-.399-2.021-.668-2.212a3.869 3.869 0 0 0-.946-.482 12.039 12.039 0 0 0-1.091-.339l.419-2.064c1.669.263 2.901.469 4.079.681.714.129 4.33.883 5.005 1.052.672.17 1.362.349 2.063.54a488.844 488.844 0 0 0 2.168 10.256 697.976 697.976 0 0 0 2.363 10.243 530.926 530.926 0 0 0 5.785-8.828c1.89-2.941 3.616-5.801 5.41-8.841l7.541.777c-.465 4.012-1.004 8.409-1.38 12.372-.376 3.967-.61 7.988-.798 12.057-.093 2.005.28 2.638.947 3.312.321.328 1.185.784 2.364 1.009l-.367 2.044-10.584-.73zm44.65-3.407a161.79 161.79 0 0 0-6.68 1.022 415.84 415.84 0 0 0-5.86 1.069l-5.849 1.113a348.182 348.182 0 0 0-1.532-11.939 421.868 421.868 0 0 0-1.905-11.879 11.327 11.327 0 0 0-.462-1.84 3.83 3.83 0 0 0-.814-1.368c-.355-.371-.792-.638-1.316-.803s-1.18-.209-1.968-.138l-.338-1.956 19.229-3.352.673 3.865c-1.176.046-2.339.12-3.487.224a41.448 41.448 0 0 0-3.491.465c-.282.048-.577.101-.885.155-.28.049-.557.114-.834.191l1.659 9.499 7.758-1.447.216 3.703-7.382 1.145 1.121 6.426c.135.777.266 1.448.396 2.015.132.574.339 1.021.624 1.358.279.332.677.544 1.186.629.514.088 1.218.054 2.119-.104l2.282-.396c.777-.134 1.363-.303 1.761-.5.396-.196.696-.456.896-.779.195-.324.325-.729.385-1.219.058-.491.123-1.079.198-1.762l1.863-.324.437 6.927zm16.99-21.39 3.468 8.283 2.356 5.622-7.191 3.016a419.762 419.762 0 0 0-3.947-10.952 313.842 313.842 0 0 0-4.302-10.804 12.724 12.724 0 0 0-1.01-1.987c-.343-.536-.75-.932-1.21-1.181-.467-.252-1.001-.366-1.609-.352-.61.018-1.341.185-2.194.51l-.712-1.7a33.79 33.79 0 0 1 4.37-2.651 68.4 68.4 0 0 1 4.635-2.149l1.136-.474 6.21 14.819zm27.821-30.776a760.842 760.842 0 0 0 3.673 5.019c3.681 4.885 7.4 9.731 11.189 14.649l-3.372 3.155c-8.825-2.198-18.123-4.227-27.087-5.837 2.232 2.733 4.431 5.454 6.598 8.158 2.166 2.705 4.618 5.484 7 8.104l-4.269 2.63c-1.041-1.626-1.929-2.905-3.041-4.477a323.123 323.123 0 0 0-3.41-4.715 461.664 461.664 0 0 0-3.887-5.329 232.635 232.635 0 0 0-4.002-5.24c-.818-1.042-1.601-1.659-2.356-1.848-.751-.191-1.708.072-2.866.784l-1.083-1.377a36.305 36.305 0 0 1 2.084-2.087 36.88 36.88 0 0 1 2.267-1.935 18.057 18.057 0 0 1 2.164-1.457c4.387.995 8.761 1.943 13.119 2.847 4.359.902 8.747 1.741 13.163 2.518a380.37 380.37 0 0 1-6.601-7.859 133.488 133.488 0 0 0-6.562-7.445l3.679-3.331a267.064 267.064 0 0 0 3.6 5.073m35.274-23.614c1.368 2.031 2.205 4.19 2.514 6.488.306 2.292.123 4.664-.555 7.1-.672 2.439-1.776 4.876-3.296 7.307a53.809 53.809 0 0 1-2.379 3.474 35.959 35.959 0 0 1-2.735 3.249 430.272 430.272 0 0 0-7.266-5.006 277.264 277.264 0 0 0-7.391-4.807l-4.924-3.086a12.256 12.256 0 0 0-1.776-.949c-.546-.23-1.072-.34-1.582-.326a3 3 0 0 0-1.49.465c-.481.289-.98.762-1.495 1.403l-1.625-.965c1.504-2.401 2.992-4.784 4.451-7.14 1.457-2.354 2.944-4.737 4.452-7.137 1.171-1.868 2.457-3.441 3.855-4.723 1.398-1.283 2.899-2.191 4.502-2.728 1.602-.537 3.302-.67 5.102-.4 1.801.277 3.702 1.041 5.703 2.3 2.588 1.625 4.567 3.451 5.935 5.481m-25.235 5.843c-.153.275-.323.56-.506.854l17.016 10.229c.613.386 1.187.746 1.721 1.08.505.319.998.514 1.47.59.476.072.939-.015 1.398-.268.455-.254.934-.779 1.437-1.58.905-1.443 1.32-2.871 1.245-4.298a9.95 9.95 0 0 0-1.103-4.065c-.66-1.29-1.55-2.481-2.667-3.571a20.57 20.57 0 0 0-3.481-2.769 21.178 21.178 0 0 0-3.39-1.714 13.774 13.774 0 0 0-3.698-.95c-1.095-.093-2.073-.018-2.931.223a7.526 7.526 0 0 0-2.362 1.141 10.261 10.261 0 0 0-1.955 1.87 24.831 24.831 0 0 0-1.685 2.371c-.185.296-.354.582-.509.857m44.648-34.969a166.663 166.663 0 0 0-1.888 6.487 358.758 358.758 0 0 0-1.493 5.768c-.485 1.926-.966 3.853-1.452 5.777a342.092 342.092 0 0 0-11.476-3.637 438.477 438.477 0 0 0-11.577-3.277 11.958 11.958 0 0 0-1.863-.349 3.794 3.794 0 0 0-1.586.161 2.997 2.997 0 0 0-1.279.856c-.371.407-.69.981-.952 1.728l-1.918-.517 5.051-18.853 3.791 1.015a67.023 67.023 0 0 0-1.266 3.257 42.635 42.635 0 0 0-1.046 3.366c-.075.273-.152.562-.234.867a7.496 7.496 0 0 0-.175.835l9.313 2.492 1.953-7.649 3.45 1.366-2.071 7.177 6.302 1.688a35.58 35.58 0 0 0 1.997.488c.571.119 1.068.121 1.49.008s.782-.387 1.074-.814c.293-.426.561-1.079.795-1.963l.602-2.238c.204-.759.298-1.361.286-1.806-.01-.443-.119-.823-.329-1.141-.21-.315-.525-.606-.943-.863-.421-.26-.925-.567-1.514-.922l.487-1.825 6.471 2.518zm1.095-39.765c.063 1.41.079 2.834.051 4.275-2.638.255-5.26.541-7.857.854-2.598.311-5.206.677-7.819 1.089-.776.12-1.538.249-2.285.383-.743.133-1.506.258-2.283.382-.747.119-1.581.234-2.504.346-.923.115-1.775.328-2.557.643-.778.313-1.398.778-1.86 1.393-.461.615-.604 1.483-.428 2.602l-1.954.354c-.378-2.203-.745-4.385-1.103-6.546-.355-2.163-.706-4.346-1.055-6.556a26.94 26.94 0 0 1-.337-3.967c-.009-1.273.186-2.42.583-3.441.398-1.02 1.05-1.888 1.958-2.605.908-.717 2.172-1.202 3.788-1.457 1.774-.279 3.341.04 4.697.958 1.358.919 2.339 2.192 2.947 3.819-.301-2.311.099-4.274 1.201-5.88 1.102-1.612 2.821-2.6 5.158-2.967 1.837-.289 3.412-.099 4.729.571a9.087 9.087 0 0 1 3.294 2.831c.878 1.218 1.572 2.599 2.087 4.147.515 1.544.89 3.063 1.124 4.558.22 1.401.363 2.807.425 4.214m-27.832.557c.047.2.085.39.116.579l9.898-1.56a2.359 2.359 0 0 0-.028-.474l-.08-.514-.067-.42c-.116-.745-.355-1.355-.718-1.825a3.4 3.4 0 0 0-1.338-1.056 5.215 5.215 0 0 0-1.74-.42 8.755 8.755 0 0 0-1.925.086c-1.431.228-2.553.733-3.374 1.514-.818.781-1.103 1.951-.86 3.508.03.186.068.38.116.582m16.648-2.145a70.898 70.898 0 0 1 3.975-.744c.434-.067.868-.159 1.294-.276a3.47 3.47 0 0 0 1.116-.51c.319-.226.55-.511.704-.853.154-.34.184-.794.097-1.355-.117-.745-.373-1.367-.772-1.863a4.189 4.189 0 0 0-1.448-1.16 5.993 5.993 0 0 0-1.856-.545 6.884 6.884 0 0 0-1.982.026c-1.93.303-3.389.956-4.38 1.956-.992 1.001-1.327 2.53-1.001 4.584.039.25.086.495.14.742.055.246.101.495.14.744 1.34-.212 2.663-.46 3.973-.746m-4.844-48.612a163.434 163.434 0 0 0 2.699 6.196c.83 1.804 1.676 3.601 2.532 5.391.859 1.79 1.717 3.58 2.578 5.369a346.648 346.648 0 0 0-11.152 4.539 437.067 437.067 0 0 0-10.996 4.881c-.629.29-1.181.596-1.657.92a3.77 3.77 0 0 0-1.116 1.138 3.084 3.084 0 0 0-.438 1.478c-.023.549.101 1.193.372 1.935l-1.804.831-8.164-17.73 3.562-1.641a69.934 69.934 0 0 0 1.108 3.314c.397 1.084.844 2.17 1.347 3.258l.374.816c.118.257.253.507.4.752l8.756-4.033-3.386-7.131 3.527-1.155 2.994 6.844 5.924-2.73c.718-.33 1.33-.634 1.847-.904.519-.273.901-.589 1.15-.947.254-.358.357-.795.31-1.311-.047-.516-.263-1.19-.643-2.021l-.97-2.102c-.331-.715-.642-1.24-.933-1.575-.294-.332-.621-.554-.984-.664-.365-.111-.787-.131-1.278-.064-.488.068-1.073.156-1.754.262l-.791-1.717 6.586-2.199zM89.996 256.618c1.499-2.03 2.959-4.118 4.448-6.126a161.464 161.464 0 0 0 4.334-6.146l-.166-.341-12.133 5.915-2.969-7.13a390.818 390.818 0 0 1 8.92-3.838 161.943 161.943 0 0 0 9.074-4.095c.508-.25 1.033-.487 1.569-.717.539-.228 1.06-.466 1.57-.714a13.475 13.475 0 0 0 1.699-.989c.539-.37.985-.789 1.332-1.258.35-.469.556-1 .617-1.592.061-.591-.086-1.253-.448-1.989l1.911-.935a1044.005 1044.005 0 0 1 6.149 12.356 24.987 24.987 0 0 1 1.417 3.542c.378 1.199.535 2.369.477 3.501a6.68 6.68 0 0 1-.977 3.165c-.595.974-1.599 1.808-3.013 2.499-1.926.94-3.738 1.231-5.439.871-1.704-.359-3.253-1.355-4.647-2.989a33.64 33.64 0 0 0-1.883 2.658 98.544 98.544 0 0 1-1.801 2.723l-1.079 1.501a40.848 40.848 0 0 0-1.19 1.766c-1.094 1.718-2.105 3.748-1.102 5.737l-1.74.853-4.93-8.228zm21.001-12.409a5.131 5.131 0 0 0 1.205-1.302 3.271 3.271 0 0 0 .511-1.589c.034-.579-.116-1.208-.449-1.888l-.83-1.696-10.232 5.004c.041.155.082.294.123.413s.097.251.166.394c.429.876.937 1.522 1.527 1.937a4.128 4.128 0 0 0 1.916.743 5.82 5.82 0 0 0 2.157-.157 11.889 11.889 0 0 0 2.27-.847 9.813 9.813 0 0 0 1.636-1.012M252.751 93.867a799.29 799.29 0 0 0 3.346-5.241 1800.79 1800.79 0 0 0 9.596-15.74l4.163 1.999c1.149 9.021 2.63 18.423 4.38 27.36 1.738-3.071 3.475-6.107 5.211-9.107 1.736-3 3.436-6.292 5.015-9.461l3.998 3.025c-1.138 1.559-2.007 2.851-3.067 4.457a316.25 316.25 0 0 0-3.16 4.887 442.49 442.49 0 0 0-3.557 5.555 236.511 236.511 0 0 0-3.434 5.632c-.673 1.137-.966 2.091-.869 2.863.095.769.688 1.566 1.772 2.388l-.891 1.506c-.92-.358-1.82-.754-2.699-1.185a35.852 35.852 0 0 1-2.625-1.41 15.821 15.821 0 0 1-1.096-.703c-.35-.245-.698-.504-1.049-.786a724.124 724.124 0 0 0-2.1-13.258 456.028 456.028 0 0 0-2.426-13.182 384.19 384.19 0 0 1-4.93 9 131.801 131.801 0 0 0-4.61 8.845l-4.438-2.223c1.166-1.727 2.353-3.482 3.47-5.221m53.975 9.603c-.946 2.34-1.839 4.723-2.783 7.039a160.842 160.842 0 0 0-2.666 7.031l.244.289 10.393-8.839 4.652 6.167a396.065 396.065 0 0 1-7.8 6.028 161.224 161.224 0 0 0-7.768 6.223c-.431.368-.878.73-1.341 1.085-.465.356-.912.715-1.343 1.082-.505.431-.971.891-1.402 1.382a5.636 5.636 0 0 0-.978 1.55 3.18 3.18 0 0 0-.2 1.693c.088.588.395 1.194.929 1.818l-1.619 1.38a1431.292 1431.292 0 0 1-4.533-5.204 931.72 931.72 0 0 1-4.496-5.233 25.188 25.188 0 0 1-2.254-3.077c-.665-1.067-1.107-2.161-1.333-3.274s-.172-2.215.158-3.308c.332-1.091 1.1-2.15 2.298-3.17 1.63-1.391 3.312-2.123 5.049-2.197 1.74-.076 3.488.504 5.245 1.736.438-.994.824-2.005 1.163-3.041.339-1.036.695-2.063 1.066-3.084.196-.499.42-1.074.672-1.723.25-.651.487-1.321.711-2.006.633-1.937 1.108-4.155-.358-5.832l1.474-1.257 6.82 6.742zm-17.251 17.243a5.199 5.199 0 0 0-.843 1.561 3.282 3.282 0 0 0-.1 1.667c.112.57.414 1.14.905 1.715l1.228 1.438 8.664-7.395a6.958 6.958 0 0 0-.222-.368 3.523 3.523 0 0 0-.26-.34c-.634-.742-1.286-1.241-1.96-1.496a4.12 4.12 0 0 0-2.041-.243 5.817 5.817 0 0 0-2.051.69c-.676.372-1.339.833-1.987 1.384a9.932 9.932 0 0 0-1.333 1.387"/>
</svg>
