<svg xmlns="http://www.w3.org/2000/svg" viewBox="0 0 368.5 222.3">
    <path d="M4.33 212.38h2.04c2.16 0 4.45.43 4.45 3.21 0 2.48-2.44 2.97-4.45 2.97H4.33v-6.18Zm0-8.46H6c1.98 0 4.17.19 4.17 2.67 0 2.21-2.25 2.6-4.08 2.6H4.33v-5.27ZM0 221.93h7.54c2.72 0 7.6-.8 7.6-6.19 0-2.63-2.01-4.6-4.94-4.87v-.06c2.56-.46 4.29-2.23 4.29-4.78 0-4.68-4.17-5.48-6.95-5.48H0v21.38Zm22.67-8.27c0-2.36 1.3-4.68 3.98-4.68s4.02 2.26 4.02 4.68c0 2.64-.83 5.45-4.02 5.45s-3.98-2.85-3.98-5.45Zm-4.32.49c0 4.53 3.06 8.15 8.31 8.15s8.34-3.61 8.34-8.15c0-5.21-3.62-8.36-8.34-8.36s-8.31 3.15-8.31 8.36Zm22.12-4.99h-3.06v-3h3.06v-3.15l4.14-1.32v4.47h3.68v3h-3.68v7.35c0 1.35.37 2.6 1.95 2.6.74 0 1.45-.15 1.88-.43l.12 3.25c-.87.24-1.82.36-3.06.36-3.24 0-5.03-1.99-5.03-5.12v-8.02Zm14.45 8.21c0-2.42 2.75-2.73 4.6-2.73h1.79c0 1.23-.18 2.36-.86 3.25-.65.86-1.64 1.41-2.9 1.41-1.48 0-2.63-.58-2.63-1.93Zm-2.1-6.86c1.39-1.04 3.15-1.71 4.91-1.71 2.44 0 3.58.86 3.58 3.4h-2.29c-1.73 0-3.77.15-5.34.92-1.57.76-2.72 2.14-2.72 4.5 0 3 2.75 4.69 5.56 4.69 1.88 0 3.95-.98 4.91-2.73h.06c.03.49.03 1.53.18 2.36h3.64a71.55 71.55 0 0 1-.18-3.52c-.03-1.16-.06-2.36-.06-3.95v-2.02c0-4.66-2.01-6.65-6.86-6.65-1.76 0-3.92.46-5.53 1.19l.12 3.52Zm17.21-4.35h3.92v2.15h.06c1.3-1.81 3.06-2.51 5.22-2.51 3.77 0 5.41 2.63 5.41 6.18v9.96H80.5v-8.43c0-1.93-.03-4.53-2.69-4.53-3 0-3.65 3.22-3.65 5.24v7.72h-4.14v-15.78Zm19.83 0H94v15.78h-4.14v-15.78Zm0-6.8H94v3.92h-4.14v-3.92Zm18.81 10.11c-1.27-.43-2.19-.67-3.71-.67-1.11 0-2.44.4-2.44 1.74 0 2.51 7.2.92 7.2 6.62 0 3.67-3.31 5.14-6.67 5.14-1.57 0-3.18-.27-4.7-.67l.25-3.37c1.3.64 2.66 1.04 4.08 1.04 1.05 0 2.72-.4 2.72-1.93 0-3.09-7.2-.98-7.2-6.68 0-3.4 3-4.9 6.24-4.9 1.95 0 3.21.31 4.51.58l-.28 3.09Zm15.44.09c-.74-.34-1.55-.58-2.81-.58-2.56 0-4.2 2.02-4.2 4.99s1.39 5.14 4.29 5.14c1.17 0 2.47-.43 3.18-.74l.18 3.4c-1.2.37-2.44.52-4.14.52-5.22 0-7.85-3.52-7.85-8.33s2.72-8.18 7.69-8.18c1.67 0 2.87.18 4.02.52l-.37 3.25Zm4.27-10.6h4.14v9.34h.06c1.05-1.53 2.84-2.51 5-2.51 3.77 0 5.41 2.63 5.41 6.18v9.96h-4.14v-8.43c0-1.93-.03-4.53-2.69-4.53-3 0-3.64 3.22-3.64 5.24v7.72h-4.14v-22.97Zm22.67 13.54c.19-2.12 1.36-3.71 3.68-3.71s3.24 1.71 3.37 3.71h-7.04Zm9.82 5.2c-1.55.86-3.28 1.6-5.28 1.6-2.56 0-4.35-1.44-4.54-3.98h11c0-5.51-1.67-9.52-7.57-9.52-4.94 0-7.38 3.77-7.38 8.33 0 5.18 3.06 8.18 8.31 8.18 2.22 0 3.96-.43 5.47-1.25v-3.34Zm5.38-11.54h3.68v3.58h.06c.19-1.47 1.88-3.95 4.36-3.95.4 0 .83 0 1.27.12v4.13c-.37-.21-1.11-.34-1.86-.34-3.37 0-3.37 4.17-3.37 6.43v5.79h-4.14v-15.78Zm39.44-1.47c-1.67-.77-3.83-1.13-5.56-1.13-5.04 0-7.82 3.37-7.82 7.75s2.72 7.63 7.32 7.63c1.17 0 2.1-.12 2.84-.31v-5.57h-4.57v-3.37h8.71v11.51c-2.28.62-4.67 1.1-6.98 1.1-6.98 0-11.83-3.46-11.83-10.69s4.51-11.43 11.83-11.43c2.5 0 4.48.34 6.33.89l-.28 3.62Zm8.9 12.68c0-2.42 2.75-2.73 4.6-2.73h1.79c0 1.23-.18 2.36-.86 3.25-.65.86-1.64 1.41-2.9 1.41-1.49 0-2.63-.58-2.63-1.93Zm-2.1-6.86c1.39-1.04 3.15-1.71 4.91-1.71 2.44 0 3.58.86 3.58 3.4h-2.29c-1.73 0-3.76.15-5.34.92-1.58.76-2.72 2.14-2.72 4.5 0 3 2.75 4.69 5.56 4.69 1.88 0 3.95-.98 4.91-2.73h.06c.03.49.03 1.53.18 2.36h3.65c-.09-1.23-.16-2.33-.19-3.52-.03-1.16-.06-2.36-.06-3.95v-2.02c0-4.66-2.01-6.65-6.86-6.65-1.76 0-3.92.46-5.53 1.19l.12 3.52Zm17.3-4.35h3.68v3.58h.06c.18-1.47 1.88-3.95 4.36-3.95.4 0 .84 0 1.27.12v4.13c-.37-.21-1.12-.34-1.86-.34-3.37 0-3.37 4.17-3.37 6.43v5.79h-4.14v-15.78Zm14.15 3h-3.06v-3h3.06v-3.15l4.14-1.32v4.47h3.68v3h-3.68v7.35c0 1.35.37 2.6 1.94 2.6.74 0 1.45-.15 1.89-.43l.12 3.25c-.87.24-1.82.36-3.06.36-3.24 0-5.03-1.99-5.03-5.12v-8.02Zm14.45 3.34c.19-2.12 1.36-3.71 3.68-3.71s3.24 1.71 3.37 3.71h-7.04Zm9.82 5.2c-1.54.86-3.27 1.6-5.28 1.6-2.56 0-4.35-1.44-4.54-3.98h11c0-5.51-1.67-9.52-7.57-9.52-4.94 0-7.38 3.77-7.38 8.33 0 5.18 3.06 8.18 8.31 8.18 2.22 0 3.95-.43 5.47-1.25v-3.34Zm5.29-11.54h3.92v2.15h.06c1.3-1.81 3.06-2.51 5.22-2.51 3.77 0 5.41 2.63 5.41 6.18v9.96h-4.14v-8.43c0-1.93-.03-4.53-2.69-4.53-3 0-3.64 3.22-3.64 5.24v7.72h-4.14v-15.78Zm33.88 6.22h2.04c2.16 0 4.45.43 4.45 3.21 0 2.48-2.44 2.97-4.45 2.97h-2.04v-6.18Zm0-8.46h1.67c1.98 0 4.17.19 4.17 2.67 0 2.21-2.26 2.6-4.08 2.6h-1.76v-5.27Zm-4.32 18.01h7.54c2.71 0 7.6-.8 7.6-6.19 0-2.63-2.01-4.6-4.94-4.87v-.06c2.57-.46 4.3-2.23 4.3-4.78 0-4.68-4.17-5.48-6.95-5.48h-7.54v21.38Zm22.3-9.43c.18-2.12 1.36-3.71 3.68-3.71s3.24 1.71 3.37 3.71h-7.04Zm9.82 5.2c-1.54.86-3.27 1.6-5.28 1.6-2.56 0-4.36-1.44-4.54-3.98h11c0-5.51-1.67-9.52-7.57-9.52-4.94 0-7.38 3.77-7.38 8.33 0 5.18 3.06 8.18 8.31 8.18 2.22 0 3.95-.43 5.47-1.25v-3.34Zm5.38-11.54h3.67v3.58h.06c.18-1.47 1.88-3.95 4.35-3.95.4 0 .84 0 1.27.12v4.13c-.37-.21-1.12-.34-1.86-.34-3.37 0-3.37 4.17-3.37 6.43v5.79h-4.14v-15.78Zm13.34 0h3.92v2.15h.06c1.29-1.81 3.06-2.51 5.22-2.51 3.77 0 5.4 2.63 5.4 6.18v9.96h-4.14v-8.43c0-1.93-.04-4.53-2.69-4.53-3 0-3.65 3.22-3.65 5.24v7.72h-4.14v-15.78ZM29.76 47.25h8.43c5.83 0 11.67 1.19 11.67 7.63 0 5.8-6.19 7.76-11.93 7.76h-8.17V47.25ZM.29 78.13h47.36c16.96 0 33.57-1.93 33.57-20.87 0-7.51-7.04-15.71-18.39-17.12v-.21c10.88-2.58 16.85-8.06 16.85-18.38 0-14.31-13.92-18.51-28.06-18.51H.29v75.09Zm29.47-60.9h8.52c5.63 0 10.78 1.74 10.78 7.33s-5.96 7.2-11.47 7.2h-7.83V17.23Zm90.62 23.35c0-7 .9-20.76 12.51-20.76s12.74 13.76 12.86 20.76c-.13 8.07-.48 20.77-12.86 20.77-11.24 0-12.51-12.7-12.51-20.77Zm58.12 0c0-25.17-17.08-38.84-45.61-38.84S87.64 15.41 87.64 40.58s16.72 38.84 45.25 38.84 45.61-13.25 45.61-38.84ZM79.75 172.85c-10.33 2.91-20.09 4.1-32.42 4.1-26.07 0-46.95-13.13-46.95-39.92 0-25.17 21.79-37.75 46.95-37.75 14.69 0 21.76 1.07 29.29 2.8v20.22c-4.27-2.37-12.25-4.31-20.66-4.31-14.93 0-24.82 7.22-24.82 20.86 0 10.33 4.38 19.38 16.41 19.38 2.11 0 4.6 0 6.39-.66v-19.99h25.81v35.27Zm52.97-55.83h.22l8.36 24.65h-17.07l8.49-24.65Zm-44.77 58.96h28.22l4.54-16.24h23.88l4.85 16.24h29.71l-26.31-75.1h-39l-25.89 75.1ZM188.77 0v175.95h179.74V0H188.77Zm175.35 77.35c-4.1-18.25-13.42-35.15-27.41-48.5C323.49 16.24 307 7.75 289.32 3.93h74.79v73.43ZM278.64 6.83c20.48 2.28 39.81 11.03 54.79 25.31 15.67 14.97 25.24 34.58 27.68 55.5-8-21.71-31.86-20.06-41.02-19.45-10.96.74-30.18 8.26-30.18 8.26 7.05-15.04 7.94-29.77 7.94-29.77 2.63-25.36-8.53-35.67-19.23-39.84Zm-85.37-2.91h67.79v.02h-.39c-18.87.52-42.56 10.23-67.4 25.78V3.92Zm0 31.64c25.65-16.53 50.09-26.19 69.04-26.44 9.86-.13 17.55 2.37 22.87 7.44 2.56 2.43 4.49 5.45 5.87 8.89-12.49-1.43-28.33 1.78-46.56 9.66-16.49 7.14-33.93 17.65-51.21 30.74v-30.3Zm0 36.62c17.97-13.95 36.13-25.11 53.24-32.52 18.58-8.04 34.31-11.04 46.09-8.99 1.03 4.9 1.15 10.55.36 16.83-28.64 5.53-65.13 26.57-99.7 57.43V72.18Zm0 39.48c34.22-31.35 70.51-52.96 98.86-58.94-1.39 7.12-3.83 14.98-7.34 23.45-.45 1.11-.97 2.25-1.45 3.36-27.3 12.72-57.76 34.85-85.73 63.12-1.47 1.48-2.9 2.96-4.33 4.43v-35.43Zm22.34 59.88h-22.34v-17.17c2.58-2.77 5.23-5.52 7.94-8.27 25.79-26.07 53.62-46.79 78.85-59.54-12.52 25.6-32.74 53.1-57.94 78.55-2.15 2.18-4.33 4.33-6.52 6.43Zm7.15 0c1-1.01 2.02-1.99 3.02-2.99 27.34-27.66 49-57.78 61.47-85.42 9.43-4.26 18.45-7.35 26.76-9.06-1.42 7.02-3.82 14.71-7.26 23.02-9.85 23.75-27 49.69-49.06 74.45h-34.94Zm41.6 0c21.06-24.19 37.45-49.37 47.08-72.57 3.85-9.29 6.47-17.95 7.85-25.81 2.91-.43 5.7-.66 8.39-.7 3.21-.05 6.18.22 8.94.74.44 2.35.69 4.84.74 7.52.35 23.96-14.83 57.23-40.39 90.81h-32.62Zm38.88 0c24.87-33.5 39.54-66.63 39.18-90.88-.02-2.09-.21-4.08-.47-6.01 3.33 1.23 6.24 2.98 8.61 5.26 11.23 10.7 11.09 31.86-.4 59.59-4.28 10.34-9.98 21.11-16.83 32.03h-30.1Zm35.98 0c6.3-10.26 11.57-20.4 15.63-30.17 5.64-13.62 8.68-25.78 9.07-36.21h.2v66.38h-24.9Z" style="fill:#1d1d1b;stroke-width:0"/>
</svg>
