<svg xmlns="http://www.w3.org/2000/svg" id="Ebene_2" viewBox="0 0 187.56 138">
    <defs>
        <style>
      .cls-1,.cls-2,.cls-3{stroke-width:0}.cls-1,.cls-3{fill:#00a95f}.cls-2{fill:#fe6200}.cls-2,.cls-3{fill-rule:evenodd}
        </style>
    </defs>
    <g id="Ebene_1-2">
        <path d="m40.2 98.88.6-.96v-1.08l-.24-.48-.36-.48-.24-.48-.48-.24-.96-.24-.48-.24-.48.24h-.48l-.6.24-.48.48-.24.24-.48 1.2v.6l.24.48v.48l.24.24.48.48.24.24 1.08.48h1.2l.48-.24.24-.24.48-.24.24-.48m-8.4 8.52-.96-.24h-1.08l-.48.24-.48.24-.48.24-.24.48-.24.96-.24.48.24.6v.48l.24.48.48.24.24.48.96.24h1.32l.48-.24.24-.24.48-.24.24-.48.48-.96v-1.08l-.24-.48-.24-.48-.24-.24-.48-.48Zm-3.24-18 .24-.24.24-.48.24-.48v-1.56l-.24-.48-.24-.48-.24-.48-.48-.36h-.48l-.48-.24h-1.08l-.48.24-.48.36-.48.48-.24.48-.24.48v1.56l.24.48.24.48.48.24.48.24.48.24.48.24h.6l.48-.24.48-.24.48-.24m-10.92 5.52-.48-.6-.24-.24-.6-.24h-1.68l-.24.24-.48.24-.48.6-.36.24-.24.48v1.44l.24.6.36.48.48.48.24.24.48.24h1.68l.24-.24.6-.24.48-.48.24-.24.24-.6v-1.68l-.24-.48-.24-.24Zm3-18 .48-.24.24-.48.72-.84v-.48l.24-.48v-.48l-.24-.48-.24-.48-.24-.6-.72-.48-.48-.24-.6-.24-.48.24h-.72l-.48.24-.24.24-.72 1.08v.24l-.24.72v.48l.24.48.24.6.24.24.72.72.48.24h1.8M8.4 78.12l-.24-.48-.24-.48-.72-.72h-.48l-.6-.24h-.48l-.72.24-.48.24-.24.24-.72.72-.36.48v1.32l.36.48.24.48.24.24.72.72.48.24h.96l.6-.24h.48l.48-.48.72-.72v-.48l.24-.48v-.6l-.24-.48Zm8.76-15.96.96-.24.48-.24.48-.24.48-.96.24-1.08v-.48l-.24-.48-.24-.48-.24-.48-.72-.48-1.2-.36-1.08.36-.48.24-.24.24-.72.72-.24 1.2.24.48v.6l.24.48.24.24.96.72 1.08.24m-11.76-3v-.48l-.24-.48-.24-.48-.24-.48-.96-.6-1.08-.24-.96.24-.48.36-.48.24-.48.72-.24 1.2v.48l.24.6.24.48.24.24.96.72.96.24 1.08-.24.48-.24.24-.24.72-.96.24-1.08Zm13.68-12 .96.36h.6l.48-.36.48-.24.48-.24.24-.48.24-.48.24-.96-.24-.6v-.48l-.24-.48-.48-.48-.24-.24-.48-.24-1.08-.24-.48.24h-.48l-.48.24-.48.48-.24.24-.24.48L17.4 45v.48l.24.48.24.24.24.48.48.24.48.24m-9.96-6.72V39l-.24-.48-.24-.6-.24-.24-.48-.48-.48-.24H5.4l-.48.48-.24.24-.48.6-.24.24v1.68l.24.48.24.6.24.24.48.24.48.24 1.08.24h.48l.48-.24.48-.24.24-.24.48-.6.24-.48Zm16.68-6.48.24.24.48.24h1.8l.48-.24.24-.24.48-.48.24-.48.24-.24v-1.8l-.24-.48-.24-.24-.24-.48-.48-.24-.48-.24h-1.56l-.48.24-.48.24-.48.24-.24.48-.24.48v1.56l.24.48.24.48.48.48m-7.44-9.72.24-.48.24-.48.24-.48v-.6l-.24-.48v-.48l-.48-.48-.24-.24-.48-.48h-.48l-.6-.24h-.96l-.48.24-.48.24-.24.48-.48.48v.48l-.24.48v.6l.24.48v.48l.24.48.48.24.48.24.48.24.48.24h.48l.6-.24h.48l.48-.48.24-.24Zm18.72-.72.24.48.48.24.72.48h1.68l.6-.24.72-.72.48-.72v-1.8l-.24-.48-.24-.24-.48-.48-1.08-.48h-1.44l-.48.24-.72.72-.6.96v1.56l.36.48m-3.6-11.76 1.08-.72.48-.72V9.24l-.24-.48v-.72l-.48-.24-.24-.48L33 6.84h-1.44l-.48.24-.72.72-.6.96-.24.48v.48l.24.6.24.48.36.48.24.24.96.48.48.24.48-.24H33l.48-.24Zm17.28 5.76V18l.24.48.48.48.24.36.48.24.48.24h1.56l.48-.24.48-.24.24-.6.24-.48.24-.48v-1.44l-.24-.6-.48-.48-.24-.24-.48-.24-.48-.24h-1.08l-.48.24h-.48l-.48.48-.24.24-.24.48-.24.6v.96m.72-12 .48-.24.48-.24.48-.24.24-.48.24-.24.24-.6v-1.2l-.24-.48v-.48l-.48-.24-.24-.48-.48-.36h-.48L51.24 0h-.48l-.6.24-.48.36-.48.24-.24.48-.24.48-.24.48v1.56l.24.48.24.24.48.48.48.24.48.24h1.08ZM65.4 16.8v.96l.24.48.24.48.24.24.48.6.48.24h1.56l.48-.24.48-.24.24-.36.48-.48V18l.24-.48v-.96l-.24-.6-.24-.48-.24-.48-.48-.24-.48-.24h-1.56l-.48.24-.48.24-.48.24-.24.48-.24.6v.48m4.44-11.28h.48l.6-.24h.48l.48-.24.24-.48.48-.24.24-.48v-1.8l-.24-.48-.24-.24-.24-.48-.48-.24-.48-.36-.6-.24h-.96l-.48.24-.48.36-.24.48-.48.24-.24.48v1.44l.24.6.24.48.24.48.48.24.48.24.48.24Zm9.96 15.24v.48l-.24.48v.48l.24.84v.48l.24.24 1.08.72.48.24h1.44l.48-.24.48-.24.36-.24.24-.48.24-.48.24-.48v-.6l-.24-.48V21l-.48-.48-.84-.72-.48-.24H81.6l-.48.24-.6.24-.24.48-.48.24m8.28-9 .48.24H90l.48-.24.48-.24.36-.24.48-.48.24-.48V8.76l-.24-.48-.24-.48-1.08-.72-.48-.24h-1.44l-.48.24-.6.24-.24.48-.24.24-.24.48-.24.48v.72l.24.6.24.48.24.24.84.72ZM92.04 30l-.48.24-.24.48-.36.48v1.56l.36.48.48.48.24.24.48.48H93l.48.24h.48l.6-.24.48-.24.48-.24.24-.24.24-.48.24-.48.24-.48v-.6l-.24-.48-.24-.48-.24-.48-.24-.48-.48-.24h-.48l-.6-.24h-.48l-.48.24h-.48l-.48.48m10.68-5.52.48.24.24.24.48.24h1.8l.48-.24.24-.24.48-.48.24-.48.24-.24v-1.8l-.24-.48-.24-.24-.48-.48-.48-.24-.48-.24h-1.56l-.48.24-.48.24-.24.48-.24.48-.24.48v1.56l.24.48.24.48Zm-2.28 17.76-.48.24-.48.24-.48.72-.24.48v1.8l.48.48.24.24.72.72h.48l.6.36 1.2-.36.24-.24.48-.24.48-.96.24-.48v-1.56l-.24-.48-.48-.48-.72-.48L102 42h-.48l-1.08.24m12-1.8.24.48.24.36.96.72h.48l.6.24.96-.24.48-.24.24-.24.72-1.08.24-.48v-.48l-.24-.96-.24-.6-.24-.48-.96-.48-.48-.24h-.48l-1.08.24-.48.24-.48.24-.48 1.08-.24.48v.48l.24.96ZM103.92 57h-.48l-.48.24-.48.24-.24.24-.48.48v.48l-.24.48v1.08l.24.48.24.48.24.24.48.48.48.24.96.24.6-.24h.48l.48-.24.24-.48.48-.24.24-.48v-1.8l-.24-.48-.24-.24-.24-.48-.48-.24-.24-.24-1.32-.24m12 2.4v.48l.24.6.24.48.24.24.48.48.48.24 1.08.24.48-.24h.48l.48-.24.48-.48.24-.24.24-.48v-.6l.24-.72-.24-.48v-.48l-.24-.24-.48-.48-.24-.24-.48-.24-.96-.36h-.84l-.48.36-.24.24-.48.24-.24.48-.24.48-.24.48v.48Z" class="cls-3"/>
        <path d="m44.76 74.88.24-.48.24-.48v-.48l-.24-.48-.48-.24-.48-.36h-.6l-.48.36-.24.48-.24.48v.48l.24.48.48.24.48.24h.6l.48-.24m-5.52 2.52-.48-.24-.48-.24h-.48l-.48.24-.24.48-.36.48.36.48.24.6.24.24.48.24h.48l.48-.24.48-.48v-1.08l-.24-.48Zm1.32-9 .24-.24.48-.48v-.96l-.24-.6-.48-.24h-1.08l-.48.24-.24.6-.24.48.24.48.24.48.24.24h1.32m-6.24.72-.24-.48-.24-.24-.6-.24h-.48l-.48.24-.48.48v1.08l.24.48.48.24.48.24h.48l.6-.24.24-.48.24-.48-.24-.6ZM39 60.96h.48l.48-.24.24-.48v-1.08l-.24-.48-.48-.24h-.96l-.48.24-.24.48v1.08l.24.48.48.24H39m-6-1.32v-.72l-.24-.24-.48-.24-.48-.24h-.48l-.48.48-.24.24-.24.48.24.48.24.6.48.24.48.24.48-.24.48-.24.24-.24v-.6Zm6.96-5.88h1.08l.48-.6.24-.24v-.96l-.24-.48-.48-.24-.48-.24-.6.24-.48.24-.24.48v.96l.24.48.48.36m-4.92-3.6v-.96l-.24-.48-.48-.24h-1.08l-.48.48-.24.24-.24.48.24.48.24.6.48.24.6.24.48-.24.48-.24.24-.6Zm8.16-3 .48.36h1.08l.48-.6.24-.24v-.72l-.24-.48-.24-.24-.48-.24h-1.08l-.48.24-.24.48v.48l.24.48.24.48m-3.72-4.68.24-.48.24-.48-.24-.6-.24-.48-.48-.24h-.96l-.48.48-.24.6v.96l.48.24.48.24.48.24.48-.24.24-.24Zm9.48-.48.24.24.48.24.48.24.6-.24.24-.24h.24l.24-.48v-.48l-.24-.6v-.24L51 40.2l-.6-.24h-.96l-.24.24-.24.24-.24.48v.6l.24.48m-1.68-5.76.24-.24.24-.24.24-.48v-.6l-.24-.48v-.24h-.24l-.6-.24-.48-.24-.48.24-.24.24h-.24l-.24.48v.6l.24.48v.24l.24.24.48.24h1.08Zm8.16 2.52.24.48.48.48.24.24h.72l.6-.24.24-.48.24-.24v-.72l-.24-.6-.24-.24-.6-.24h-.48l-.48.24-.48.24v.6l-.24.48m.48-6 .48-.24.48-.24v-.6l.24-.48-.24-.48-.48-.48-.24-.24h-.72l-.48.24-.24.24-.24.48v.48l.24.6.24.48.48.24h.48Zm6.96 6v.48l.24.48.48.24.6.24h.48l.48-.24.24-.48.24-.48v-.48l-.24-.6-.48-.24-.48-.24h-.6l-.48.24-.24.6-.24.48M65.16 33h.48l.48-.24.48-.24V31.2l-.24-.48-.24-.24-.48-.24h-.48l-.48.24-.48.48v1.08l.24.48.24.24.48.24Zm5.16 7.44-.24.48v.6l.24.48.6.24.48.24h.48l.48-.24.24-.48.24-.48v-.6l-.24-.48-.48-.24-.48-.24h-.48l-.6.24-.24.48M74.4 36h.96l.48-.24.24-.24.24-.48v-.84l-.24-.24-.48-.48h-.96l-.6.24-.24.24-.24.48.24.6.24.48.36.48Zm1.92 9-.24.24-.24.48v.48l.24.48.48.48h1.08l.48-.24.24-.48.24-.48v-.48l-.24-.48-.48-.24-.6-.24-.48.24-.48.24m5.52-2.76.24.24h.96l.48-.24L84 42v-1.32l-.24-.24-.48-.48h-.96l-.48.24-.24.48-.24.6.24.48.24.48Zm-1.08 9-.48.24-.24.48-.24.48v.48l.48.48.24.36h1.08l.48-.36.24-.48.24-.48v-.48l-.48-.48-.24-.24h-1.08m6-.84.24.36.24.48h1.32l.24-.24.48-.6v-.96l-.24-.48-.48-.24-.48-.24-.6.24-.48.24-.24.24-.24.48.24.72Zm-4.2 8.28h-.48l-.48.24-.24.48-.24.48.24.6.24.48.48.24.48.24.48-.24.48-.24.24-.48V59.4l-.48-.48-.24-.24h-.48m5.76 1.2.24.6.24.48.48.24h.96l.48-.48.24-.24v-1.32l-.24-.24-.48-.24-.48-.24-.48.24-.48.24-.24.48-.24.48Z" class="cls-2"/>
        <path d="M63.12 128.28h.48l.84.24.48.24.48.36.72.72.24.72.24.72v1.8l-.24.72-.24.72-.48.48-.48.6-.48.48-.84.24H62.4l-.72-.24-.48-.48-.48-.6-.6-.48-.24-.72-.24-.72v-1.8l.24-.72.24-.48.6-.72.48-.6.48-.24.72-.24h.72m3.48-9.72v9.72l-.72-.72-.96-.48-1.08-.24-.96-.24-1.2.24-.96.24-.84.48-.72.48-.72 1.08-.48.96-.24.96v2.52l.24.96.48 1.08.72.72.72.72.84.48.96.24 1.2.24.96-.24h.6l.48-.24.48-.24.48-.24.72-.72v1.44h1.8v-19.2h-1.8Zm12 3.24h-.48l-.48.24-.36.48v1.08l.36.48.48.24h.96l.48-.24.24-.48v-1.08l-.24-.48-.48-.24h-.48m-4.56 0h-.48l-.48.24-.24.48-.24.6.24.48.24.48.48.24h1.08l.24-.24.48-.48v-1.08l-.48-.48-.24-.24h-.6Zm-.24 5.04h-1.68v8.52l.48.72.48.48.24.48.24.24.84.24.96.24.96.24.96-.24.84-.24.72-.24.72-.72.48-.48.24-.72.24-.84v-7.68h-1.68v6.24l-.24 1.2-.24 1.08-.24.24-.48.48-.84.24h-1.2l-.48-.24-.24-.24-.24-.24-.6-.24-.24-1.08v-7.44Zm10.2 0v10.92h2.04v-7.44l.24-.48v-.48l.48-.6.24-.24.48-.24h1.08l.72.48.72-1.68-.72-.48h-1.44l-.6.24-.72.48-.48.72v-1.2H84m8.04 0v10.92h1.68v-6l.24-1.44.24-.72.36-.48.48-.6.72-.24h.48l.96.24h.24l.24.6.36.48v.48l.24 1.2v6.48h1.68v-6.24l.24-1.44.24-.48.24-.48.24-.36.6-.24.96-.24h.72l.48.24.24.24.24.6v.48l.24 1.2v6.72h1.8v-6.96l-.24-1.68-.24-1.08-.48-.72-.84-.24-.72-.48h-1.92l-1.08.48-.48.48-.72.72-.24-.48-.24-.24-.72-.48-.84-.48h-1.68l-.72.24-.48.48-.84.72v-1.2h-1.68m24.36-5.04h-.48l-.48.24-.24.48v1.08l.24.48.48.24h.96l.24-.24.48-.48v-1.08l-.48-.48-.24-.24h-.48m-4.44 0h-.48l-.6.24-.24.48-.24.6.24.48.24.48.6.24h.96l.24-.24.24-.48.24-.48-.24-.6-.24-.48-.24-.24h-.48Zm-.24 5.04h-2.04v6.48l.24 1.2v.84l.48.72.24.48.48.48.36.24.72.24.96.24.96.24 1.08-.24.72-.24.72-.24.72-.72.48-.48.36-.72.24-.84v-7.68h-2.04v7.44l-.24 1.08-.24.24-.48.48-.84.24h-1.2l-.48-.24-.24-.24-.24-.24-.48-.24-.24-1.08v-7.44Z" class="cls-3"/>
        <path d="M121.92 118.56h1.92v18.96h-1.92zm5.4 0h1.8v18.96h-1.8z" class="cls-1"/>
        <path d="m134.04 131.04.24-.48.24-.48.84-.96.72-.6 1.2-.24.96.24.6.24.48.36.48.24.24.48.48 1.2h-6.48m8.52 1.56v-.24l-.24-1.32-.24-.96-.6-.96-.48-1.08-.72-.48-.96-.48-1.08-.24-.96-.24-1.2.24-.96.24-.84.48-.72.48-.72 1.08-.48.96-.24.96v2.52l.24.96.48 1.08.72.72.72.72.84.48 1.2.24.96.24 1.56-.24.72-.24.72-.24.48-.48.48-.48.6-.72.48-.84-1.56-.72-.48.72-.48.6-.48.48-.48.24-.84.24h-1.2l-.72-.24-.48-.24-.48-.48-.6-.6-.24-.72-.24-.72v-.72h8.52Zm2.76-5.76v10.92h1.92v-7.92l.24-.48.24-.6.48-.24.6-.24h.96l.48.48.96-1.68-.72-.48h-1.44l-.84.24-.48.48-.48.72v-1.2h-1.92" class="cls-3"/>
        <path d="M151.2 131.28h4.8v1.56h-4.8z" class="cls-1"/>
        <path d="M163.2 128.28h.72l.48.24.72.6.6.24.48.72.24.72.24.72v1.56l-.24.72-.48.72v.24l-.24.24-.6.6-.72.48-.48.24h-1.68l-.6-.24-.72-.48-.48-.6-.48-.48-.24-.72-.24-.72v-1.8l.24-.72.24-.48.48-.72.48-.6.72-.24.84-.24h.72m-3.72-9.72h-1.8v19.2h1.8v-1.44l.96.72.72.48 1.08.24 1.2.24.96-.24 1.08-.24.72-.48.96-.72.48-.72.48-1.08.24-.96v-2.52l-.24-.96-.48-.96-.48-1.08-.96-.48-.72-.48-1.08-.24-.96-.24-1.2.24-1.08.24-.24.24-.48.24-.96.72v-9.72Zm16.92 9.72h.72l.72.24.48.24h.24l.6.6.48.72.24.48.24.96.24.84-.24.72-.24.72-.24.72-.48.48-.6.6-.72.48-.72.24h-1.44l-.84-.24-.72-.48-.48-.6-.48-.48-.24-.72-.24-.72v-1.56l.24-.72.24-.72.48-.72.48-.24.72-.6h.24l.6-.24h.72m0-1.68-1.32.24-.96.24-.96.48-.72.72-.84.84-.48.96-.24.96-.24 1.32.24.96.24 1.2.48 1.08.84.72.72.72.96.48.96.24 1.32.24 1.2-.24.96-.24 1.08-.48.72-.72.72-.72.48-1.08.48-.96v-2.52l-.48-.96-.48-.96-.72-.84-.72-.72-1.08-.48-.96-.24-1.2-.24Z" class="cls-3"/>
        <path d="M185.04 118.56h1.8v18.96h-1.8z" class="cls-1"/>
        <path d="m59.16 95.16-.48.24-.24.24-.48.48v.96l.48.6.24.24h.96l.48-.24.24-.6.36-.48-.36-.48-.24-.48-.48-.24-.48-.24m.96 5.4h-1.68v17.04h1.68v-17.04Zm8.76 1.56h.72l.72.24.24.24.36.24.72.48.48.6.24.72.24.72v1.8l-.24.72-.24.48-.48.72-.72.48-.6.24-.72.36h-1.68l-.84-.36-.48-.24-.48-.48-.48-.72-.48-.48v-1.08l-.24-.72.24-.72v-.72l.48-.72.48-.6.48-.48.48-.48h.6l.24-.24h.96m0-1.8-1.2.24-1.08.36-.96.48-.96.72-.48.72-.6 1.08-.48.96v2.28l.24 1.2.48.96.84.84.96.72.96.48 1.08.24 1.2.24.96-.24 1.32-.24.96-.48.72-.72.72-.84.48-.96.36-.96.24-1.32-.24-1.2-.36-.96-.48-1.08-.72-.72-.72-.72-.96-.48-1.32-.36-.96-.24Zm8.4-7.92v19.2h2.04v-6.96l.24-1.32.48-.48.24-.24.24-.24.84-.24h1.2l.48.24.24.24.48.24v.24l.24.48.36 1.32v6.72h1.68v-6.72l-.24-1.8v-.72l-.24-.48-.72-.48-.84-.48-.72-.36-.96-.24-.72.24-1.08.36-.72.48-.48.48V92.4h-2.04m16.92 9.72h1.08l.48.24.72.24.48.48.48.84.24.48.36.72v1.68l-.36.84-.24.72-.48.72-.24.24-.24.24-.48.24-.72.36h-1.56l-.72-.36-.72-.48-.48-.48-.24-.48-.6-.72v-.84l-.24-.72.24-.96v-.72l.6-.48.24-.84.72-.24.48-.48.72-.24h.48m3.84-1.56v1.56l-1.08-.72-.72-.48-.96-.36-1.08-.24-1.2.24-.96.36-.72.48-.84.72-.72.72-.48 1.08-.24.96v2.52l.24.96.48.96.72.84.84.72.72.48.96.24 1.2.24h1.08l.96-.48.48-.24.24-.24 1.08-.72v1.44h1.68v-11.04h-1.68Zm5.16 0v11.04h2.04v-7.2l.24-.84.24-.48.48-.48.48-.24.48-.24h1.32l.48.24.48.24.24.48.24.84.24 1.2v6.48h1.8v-8.52l-.48-1.2-.36-.24-.24-.24-.72-.48-.96-.36-.96-.24h-.84l-.96.6-.48.48-.72.48v-1.32h-2.04m12.48 0v11.04h1.68v-6.48l.24-.72v-.84l.6-.48.24-.48.48-.24.48-.24h1.2l.48.24.6.24.48.48.24.84v7.68h1.68v-8.52l-.48-1.2-.24-.24-.24-.24-.72-.48-1.08-.36-.72-.24h-.96l-.72.6-.72.48-.84.48v-1.32h-1.68m16.92 1.56h.72l.72.24.48.24.6.48.48.84.24.48.24.72v1.68l-.24.84-.24.72-.48.72-.36.24-.24.24-.48.24-.72.36h-1.44l-.84-.36-.48-.48-.48-.48-.48-.48-.24-.72-.24-.84v-1.68l.24-.72.24-.48.48-.84.48-.24.48-.48.84-.24h.72m3.48-1.56v1.56l-.72-.72-1.08-.48-.96-.36-.96-.24-1.32.24-.72.36-.96.48-.72.72-.84.72-.24 1.08-.48.96v2.52l.48.96.24.96.84.84.72.72.96.48.96.24 1.08.24h.96l.96-.48.48-.24.6-.24.72-.72v1.44h1.68v-11.04h-1.68Z" class="cls-3"/>
        <path d="M60.96 79.44h1.92v-2.52h-1.92v-2.28l.24-.24.24-.24h.96l.48.24v-2.52l-.72-.24-.48-.24-.72.24h-.84l-.72.48-.48.6-.48.48-.48.72v3h-1.32v2.52h1.32v6h3v-6m13.08-.24.84.24.72.24.24.72.24.24v.48l-.24.84-.24.48-.72.48h-.24l-.6.24-.72-.24-.48-.48-.48-.48V80.4l.48-.72.48-.24.48-.24h.24m0-2.52h-.96l-.96.24-.72.48-.84.48-.72.48-.48.84-.24.96v2.04l.24.72.48.72.72.72.84.48.24.36.48.24.96.24h2.28l.96-.24.72-.6.84-.48.48-.72.48-.72.24-.72.24-1.08-.24-.96-.24-.72-.48-1.08-.48-.48-.84-.48-.48-.24-.24-.24-.96-.24h-1.32Zm12.48.24v8.52h3v-5.28l.24-.48.72-.48h1.32l.24.24.24.24.24.48v5.28h3V79.2l-.24-.6-.24-.48-.24-.48-.6-.48-.48-.24-.72-.24h-1.44l-.84.24-.72.48-.48.48v-.96h-3M108 79.2l.72.24.48.24.48.72v1.56l-.48.48-.48.48-.48.24H108l-.84-.24-.72-.48-.48-.48V80.4l.48-.72.72-.24.24-.24h.6m1.68-7.56v6l-.48-.48-.72-.24-.84-.24h-1.44l-.72.24-.72.48-.84.48-.48.72-.24.84-.24.72-.24.96.24 1.08.24.72.24.72.48.72.84.48.24.36.48.24.72.24h1.8l.48-.24.72-.6.24-.24.24-.24v1.08h3v-13.8h-3Zm16.2 7.56.72.24.72.24.24.72.24.24v.48l-.24.84-.24.48-.72.48-.24.24h-.48l-.72-.24-.6-.48-.48-.48-.24-.6v-.24l.24-.72.48-.72.6-.24.24-.24h.48m1.68-2.28v.72l-.48-.48-.48-.24-.72-.24h-1.8l-.72.24-.72.48-.48.48-.48.72-.6.84-.24.72v2.04l.24.72.6.72.48.72.48.48.48.36.24.24.72.24h1.8l.72-.24.48-.6.24-.24.24-.24v1.08h3v-8.52h-3Zm15 2.52h1.68v-2.52h-1.68V74.4h-3v2.52h-.96v2.52h.96v6h3v-6m9.96-7.56-.84.24-.48.24-.24.6-.24.72.24.72.24.48.48.24.84.24.72-.24.48-.24.24-.48.24-.72-.24-.72-.24-.6-.48-.24-.72-.24m1.44 5.04h-3v8.52h3v-8.52Zm12.48 2.28.72.24.48.24.48.72v1.56l-.48.48-.48.48h-.48l-.24.24-.72-.24-.84-.48-.48-.48V80.4l.48-.72.84-.24.24-.24h.48m0-2.52h-1.32l-.96.24-.72.48-.72.48-.84.48-.24.84-.24.96-.24.96.24 1.08.24.72.24.72.84.72.72.48.24.36.48.24.96.24h2.28l.96-.24.84-.6.72-.48.72-.72.24-.72.48-.72v-2.04l-.48-.72-.24-1.08-.72-.48-.72-.48-.24-.24-.6-.24-.96-.24h-.96Zm12.12.24v8.52h3v-4.56l.24-.72.24-.48.6-.48h1.44l.24.24v.24l.24.48v5.28h3V79.2l-.24-.6-.24-.48-.24-.48-.48-.48-.48-.24-.84-.24h-1.44l-.72.24-.48.48-.84.48v-.96h-3" class="cls-2"/>
    </g>
</svg>
