<?xml version="1.0" encoding="UTF-8"?><svg id="Ebene_2" xmlns="http://www.w3.org/2000/svg" xmlns:xlink="http://www.w3.org/1999/xlink" viewBox="0 0 566.93 297.64"><defs><style>.cls-1{fill:#000;}.cls-1,.cls-2{stroke-width:0px;}.cls-2{fill:none;}.cls-3{clip-path:url(#clippath);}</style><clipPath id="clippath"><rect class="cls-2" width="566.93" height="297.64"/></clipPath></defs><g id="Ebene_1-2"><g class="cls-3"><path class="cls-1" d="M415.22,190.04c1.87,0,3.68.18,3.68,2.11,0,1.78-1.9,2.23-3.74,2.23h-1.57v-4.34h1.63ZM413.59,198.18h1.72c1.93,0,4.13.21,4.13,2.5,0,2.14-2.14,2.44-4.19,2.44h-1.66v-4.94ZM417.66,186.06h-9.67v21.03h8.86c3.77,0,8.2-1.05,8.2-6.09,0-2.56-1.45-4.07-4.25-4.64v-.06c2.35-.78,3.71-2.26,3.71-4.91,0-3.62-2.92-5.33-6.84-5.33M383.49,191.4h-4.94v15.7h5.42v-6.63c0-3.38,1.14-4.91,3.38-4.91,1.48,0,2.5,1,2.5,3.95v7.59h5.43v-9.79c0-3.25-1.72-6.27-6-6.27-2.47,0-4.64.99-5.73,3.25h-.06v-2.89ZM364.8,197.76c.12-1.81,1.06-3.29,3.01-3.29,2.17,0,3.01,1.48,3.01,3.29h-6.03ZM359.38,199.23c0,5.18,3.95,8.23,9.13,8.23,2.02,0,4.01-.3,5.76-1v-3.83c-1.63.87-3.32,1.21-4.79,1.21-2.65,0-4.31-.84-4.61-3.01h10.85v-.99c0-4.67-2.11-8.8-7.92-8.8-4.88,0-8.41,3.01-8.41,8.2M188.45,191.4h-5.42v15.7h5.42v-15.7ZM188.45,184.86h-5.42v3.98h5.42v-3.98ZM115.22,199.26c0-2.35,1.02-4.43,3.53-4.43s3.53,2.08,3.53,4.43-1.03,4.4-3.53,4.4-3.53-2.08-3.53-4.4M109.62,199.26c0,5.18,3.95,8.2,9.13,8.2s9.13-3.01,9.13-8.2-3.95-8.23-9.13-8.23-9.13,3.01-9.13,8.23M95.7,155.66c0-1.84,2.35-1.96,3.77-1.96,1.6,0,3.23.3,4.67.96l.36-4.34c-1.42-.48-3.4-.78-5.42-.78-4.22,0-9.16,1.39-9.16,6.45,0,7.65,9.94,5.18,9.94,9.1,0,1.69-1.69,2.05-3.46,2.05-2.32,0-4.34-.6-5.79-1.39l-.48,4.64c1.87.6,4.31.91,6.27.91,4.67,0,9.25-1.48,9.25-6.93,0-7.6-9.95-5.3-9.95-8.71M101.84,200.68c0,2.14-2.14,2.44-4.19,2.44h-1.66v-4.94h1.72c1.93,0,4.13.21,4.13,2.5M101.3,192.15c0,1.78-1.9,2.23-3.74,2.23h-1.57v-4.34h1.63c1.87,0,3.68.18,3.68,2.11M106.91,191.4c0-3.62-2.92-5.33-6.84-5.33h-9.67v21.03h8.86c3.77,0,8.2-1.05,8.2-6.09,0-2.56-1.45-4.07-4.25-4.64v-.06c2.35-.78,3.71-2.26,3.71-4.91M116.43,171.3c1.36,0,2.38-.18,3.4-.3l-.18-3.52c-.54.09-1.12.21-1.66.21-1.72,0-2.17-.96-2.17-2.86v-5.79h3.8v-3.8h-3.8v-5.18l-5.33,1.66v3.53h-3.19v3.8h3.1v6.39c0,3.74,1.18,5.88,6.03,5.88M122.7,152.67h5.42v-3.98h-5.42v3.98ZM122.7,170.94h5.42v-15.7h-5.42v15.7ZM132.31,191.4h-3.19v3.8h3.1v6.39c0,3.74,1.17,5.88,6.03,5.88,1.36,0,2.38-.18,3.41-.3l-.18-3.53c-.54.09-1.11.21-1.66.21-1.72,0-2.17-.96-2.17-2.86v-5.79h3.8v-3.8h-3.8v-5.18l-5.33,1.66v3.53ZM143.1,152.01l.33-3.74c-.69-.12-1.6-.3-2.77-.3-4.34,0-6.54,1.63-6.54,6.3v.96h-3.28v3.8h3.19v11.9h5.43v-11.9h3.86v-3.8h-3.86v-.96c0-1.54.54-2.5,1.93-2.5.81,0,1.27.09,1.72.24M154.34,171.3c1.36,0,2.38-.18,3.4-.3l-.18-3.52c-.54.09-1.11.21-1.66.21-1.72,0-2.17-.96-2.17-2.86v-5.79h3.8v-3.8h-3.8v-5.18l-5.33,1.66v3.53h-3.19v3.8h3.1v6.39c0,3.74,1.18,5.88,6.03,5.88M153.77,200.14c0,1.84-1.3,3.71-3.35,3.71-1.27,0-2.23-.63-2.23-1.72,0-1.51,1.45-2.08,3.29-2.08.81,0,1.6.06,2.29.09M154.16,207.1h4.97c-.24-1.24-.3-2.47-.3-3.71v-5.85c0-4.79-3.47-6.51-7.47-6.51-2.32,0-4.34.33-6.27,1.11l.09,3.68c1.51-.85,3.25-1.18,5-1.18,1.96,0,3.56.57,3.59,2.71-.69-.12-1.66-.21-2.53-.21-2.89,0-8.11.57-8.11,5.36,0,3.41,2.77,4.94,5.88,4.94,2.23,0,3.74-.87,4.97-2.83h.06c0,.81.09,1.63.12,2.47M171.76,170.94h4.94v-15.7h-5.42v6.63c0,3.38-1.14,4.91-3.38,4.91-1.48,0-2.5-.99-2.5-3.95v-7.59h-5.42v9.79c0,3.26,1.72,6.27,6,6.27,2.47,0,4.64-1,5.73-3.25h.06v2.89ZM173.59,207.1h5.42v-9.79c0-3.25-1.72-6.27-6-6.27-2.47,0-4.64.99-5.73,3.25h-.06v-2.89h-4.94v15.7h5.42v-6.63c0-3.38,1.14-4.91,3.38-4.91,1.48,0,2.5,1,2.5,3.95v7.59ZM191.37,170.94h5.42v-9.79c0-3.26-1.72-6.27-6-6.27-2.47,0-4.64.99-5.73,3.25h-.06v-2.89h-4.94v15.7h5.42v-6.63c0-3.38,1.14-4.91,3.38-4.91,1.48,0,2.5,1,2.5,3.95v7.59ZM203.94,191.94c-1.75-.69-3.65-.9-5.51-.9-3.14,0-6.69,1.48-6.69,5.09,0,5.67,7.72,3.8,7.72,6.45,0,1.08-1.09,1.26-2.2,1.26-1.96,0-3.83-.54-5.09-1.08l-.3,3.95c1.6.51,3.26.75,5.7.75,3.56,0,7.32-1.06,7.32-5.24,0-5.97-8.08-4.04-8.08-6.48,0-.87,1.33-1.08,2.5-1.08,1.36,0,3.07.36,4.22,1.05l.42-3.77ZM211.56,162.74c0,2.41-1.54,4.04-3.47,4.04-1.63,0-3.07-1.39-3.07-3.83,0-2.14,1.05-3.92,3.07-3.92,2.44,0,3.47,1.96,3.47,3.71M216.81,169.1v-13.86h-4.91v2.83h-.06c-1.15-1.93-3.01-3.19-5.33-3.19-4.88,0-7.08,3.5-7.08,8.17s2.68,7.9,6.99,7.9c2.17,0,3.98-.84,5.27-2.68h.06v.84c0,3.07-1.69,4.55-4.82,4.55-2.26,0-3.65-.48-5.3-1.3l-.27,4.28c1.26.45,3.4.99,6,.99,6.33,0,9.46-2.08,9.46-8.53M215.91,207.46c1.45,0,3.07-.24,4.43-.69l-.12-4.04c-.9.48-2.14.75-3.38.75-2.35,0-4.46-1.63-4.46-4.13,0-2.71,1.81-4.34,4.16-4.34,1.3,0,2.29.27,3.29.87l.39-3.98c-1.24-.6-2.68-.87-4.31-.87-5.18,0-9.13,3.01-9.13,8.23s3.95,8.2,9.13,8.2M228.08,193.72h-.06v-9.22h-5.42v22.6h5.42v-6.63c0-3.38,1.15-4.91,3.38-4.91,1.48,0,2.5,1,2.5,3.95v7.59h5.42v-9.79c0-3.25-1.72-6.27-6-6.27-2.35,0-4.07,1.05-5.24,2.68M240.49,152.01l.33-3.74c-.69-.12-1.6-.3-2.77-.3-4.34,0-6.54,1.63-6.54,6.3v.96h-3.28v3.8h3.19v11.9h5.42v-11.9h3.86v-3.8h-3.86v-.96c0-1.54.54-2.5,1.93-2.5.81,0,1.27.09,1.72.24M247.37,197.76c.12-1.81,1.06-3.29,3.01-3.29,2.17,0,3.01,1.48,3.01,3.29h-6.03ZM241.94,199.23c0,5.18,3.95,8.23,9.13,8.23,2.02,0,4.01-.3,5.76-1v-3.83c-1.63.87-3.31,1.21-4.79,1.21-2.65,0-4.31-.84-4.61-3.01h10.85v-.99c0-4.67-2.11-8.8-7.93-8.8-4.88,0-8.41,3.01-8.41,8.2M245.68,153.31h4.34v-4.34h-4.34v4.34ZM252.55,153.31h4.34v-4.34h-4.34v4.34ZM254.69,170.94h4.94v-15.7h-5.42v6.63c0,3.38-1.15,4.91-3.38,4.91-1.48,0-2.5-.99-2.5-3.95v-7.59h-5.42v9.79c0,3.26,1.72,6.27,6,6.27,2.47,0,4.64-1,5.73-3.25h.06v2.89ZM274.21,159.57l.27-4.52c-.54-.09-1.2-.18-1.84-.18-2.35,0-3.71,1.27-4.64,3.25h-.06v-2.89h-4.94v15.7h5.42v-6.63c0-3.07,1.42-4.91,3.95-4.91.63,0,1.23,0,1.84.18M272.41,207.1h5.42v-9.79c0-3.25-1.72-6.27-6-6.27-2.47,0-4.64.99-5.72,3.25h-.06v-2.89h-4.94v15.7h5.42v-6.63c0-3.38,1.14-4.91,3.38-4.91,1.48,0,2.5,1,2.5,3.95v7.59ZM297.06,163.13c0,2.29-1.51,4.01-3.32,4.01-2.05,0-3.29-1.72-3.29-4.22,0-2.08,1.18-3.89,3.29-3.89,1.99,0,3.32,1.72,3.32,4.1M297.48,170.94h5v-22.6h-5.45v8.92h-.06c-1.39-1.81-3.23-2.38-5.39-2.38-4.34,0-6.72,4.07-6.72,7.93,0,4.64,2.5,8.5,7.17,8.5,2.5,0,4.7-1.42,5.39-3.17h.06v2.8ZM309.57,186.64c-2.05-.78-4.97-.93-6.36-.93-7.71,0-13.29,3.04-13.29,10.97s6.48,10.79,12.08,10.79c1.93,0,4.58-.06,8.14-.96v-11.69h-8.71v3.98h3.29v4.16c-.51.24-1.24.36-1.99.36-4.1,0-7.02-2.5-7.02-6.63,0-4.91,3.74-6.81,8.29-6.81,1.33,0,3.37.33,5.12,1.36l.45-4.58ZM310.41,161.59c.12-1.81,1.05-3.29,3.01-3.29,2.17,0,3.01,1.48,3.01,3.29h-6.03ZM310.47,164.67h10.85v-.99c0-4.67-2.11-8.8-7.93-8.8-4.88,0-8.41,3.01-8.41,8.2s3.95,8.23,9.13,8.23c2.02,0,4.01-.3,5.76-1v-3.83c-1.63.87-3.32,1.21-4.79,1.21-2.65,0-4.31-.84-4.61-3.01M323.76,200.14c0,1.84-1.3,3.71-3.35,3.71-1.26,0-2.23-.63-2.23-1.72,0-1.51,1.45-2.08,3.29-2.08.81,0,1.6.06,2.29.09M321.35,191.04c-2.32,0-4.34.33-6.27,1.11l.09,3.68c1.51-.85,3.26-1.18,5-1.18,1.96,0,3.56.57,3.59,2.71-.69-.12-1.66-.21-2.53-.21-2.89,0-8.11.57-8.11,5.36,0,3.41,2.77,4.94,5.88,4.94,2.23,0,3.74-.87,4.97-2.83h.06c0,.81.09,1.63.12,2.47h4.97c-.24-1.24-.3-2.47-.3-3.71v-5.85c0-4.79-3.47-6.51-7.47-6.51M335.45,170.94h5.42v-9.79c0-3.26-1.72-6.27-6-6.27-2.47,0-4.64.99-5.73,3.25h-.06v-2.89h-4.94v15.7h5.42v-6.63c0-3.38,1.15-4.91,3.38-4.91,1.48,0,2.5,1,2.5,3.95v7.59ZM343.5,195.74l.27-4.52c-.54-.09-1.21-.18-1.84-.18-2.35,0-3.71,1.26-4.64,3.25h-.06v-2.89h-4.94v15.7h5.42v-6.63c0-3.07,1.42-4.91,3.95-4.91.63,0,1.24,0,1.84.18M348.56,187.87v3.53h-3.19v3.8h3.1v6.39c0,3.74,1.18,5.88,6.03,5.88,1.36,0,2.38-.18,3.4-.3l-.18-3.53c-.54.09-1.11.21-1.66.21-1.72,0-2.17-.96-2.17-2.86v-5.79h3.8v-3.8h-3.8v-5.18l-5.33,1.66ZM349.16,123.92l-.02.15c-1.93,15.57,8.55,30.16,24.18,33.13,12.36,2.33,24.38-3.27,30.79-13.24l.1-.12c-6.07-1.35-11.33-4.46-15.31-8.7v.03c-5.62,4.33-12.99,6.34-20.49,4.91-9.11-1.73-16.18-8.07-19.24-16.15M419.87,137.81c5.62-10.86,2.08-22.5,2.08-22.5-3.96-13.78-16.53-20.55-16.53-20.55-14.74-7.93-27.8-3.16-27.8-3.16-15.8,4.86-21.02,16.28-21.02,16.28-4.29,7.45-1.73,15.46-1.73,15.46,1.36,5.98,6.31,8.68,6.31,8.68,3.33,2.07,6.62.81,6.62.81,3.38-1.28,2.71-5.06,2.71-5.06-.27-4.17-5.36-4.99-5.36-4.99-.83.01-3.09-.38-3.09-.38-3.21-.87-2.89-3.4-2.86-4.5.04-1.11.98-1.31,1.23-1.36.25-.04,3.3-.84,3.84-.99.53-.14.77-.23.97-1.61.2-1.39,1.46-2.02,1.67-2.08.23-.06,2.66-.51,3.09-.6.43-.1.43-.5.64-1.32.2-.81.97-1.55,2.23-1.46,1.27.09,1.79,1.34,2.02,1.73.23.4.45.34.45.34,17.39-4.72,30.44,3.16,30.44,3.16,13.99,7.74,14.1,24.1,14.1,24.1M427.9,132.07c0-.13.01-.26.01-.39v-.02c-9.86,20.61-32.67,32.87-56.17,28.42-6.05-1.15-11.66-3.31-16.69-6.28l.18.3c5.75,8.35,14.67,14.53,25.41,16.56,21.63,4.08,42.47-10.12,46.56-31.75.44-2.3.67-4.59.7-6.85M432.64,197.76c.12-1.81,1.05-3.29,3.01-3.29,2.17,0,3.01,1.48,3.01,3.29h-6.03ZM432.7,200.83h10.85v-.99c0-4.67-2.11-8.8-7.93-8.8-4.88,0-8.41,3.01-8.41,8.2s3.95,8.23,9.13,8.23c2.02,0,4.01-.3,5.76-1v-3.83c-1.63.87-3.32,1.21-4.79,1.21-2.65,0-4.31-.84-4.61-3.01M457.59,195.74l.27-4.52c-.54-.09-1.21-.18-1.84-.18-2.35,0-3.71,1.26-4.64,3.25h-.06v-2.89h-4.94v15.7h5.42v-6.63c0-3.07,1.42-4.91,3.95-4.91.63,0,1.24,0,1.84.18M477.02,207.1v-9.79c0-3.25-1.72-6.27-6-6.27-2.47,0-4.64.99-5.73,3.25h-.06v-2.89h-4.94v15.7h5.42v-6.63c0-3.38,1.15-4.91,3.38-4.91,1.48,0,2.5,1,2.5,3.95v7.59h5.43Z"/></g></g></svg>