<?xml version="1.0" encoding="UTF-8"?><svg id="Ebene_2" xmlns="http://www.w3.org/2000/svg" viewBox="0 0 173.72 70.48"><defs><style>.cls-1{fill:#fff;stroke:#fff;stroke-width:.56px;}.cls-2{fill:#e30613;}.cls-2,.cls-3{stroke-width:0px;}.cls-3{fill:#1d1d1b;}</style></defs><g id="Vordergrund"><path class="cls-1" d="M4.2,18.39c3.16,2.21,7.04,3.34,8.96,3.34,1.63,0,2.9-.36,2.9-1.63s-.94-1.56-3.48-2.32c-4.1-1.23-8.2-2.58-8.2-7.18,0-3.55,3.26-6.38,8.81-6.38,2.65,0,4.9.62,7.15,1.49v5.11c-2.54-1.02-4.71-1.6-7.11-1.6-1.74,0-2.5.44-2.5,1.34s.98,1.27,2.97,1.92c4.1,1.34,8.74,2.9,8.74,7.62,0,3.84-3.41,6.6-9.25,6.6-4.03,0-6.96-1.38-8.99-2.57v-5.73h0Z"/><polygon class="cls-1" points="36.48 9.29 40.03 9.29 44.13 16.47 45.51 4.57 51.13 4.57 48.45 26.34 43.88 26.34 38.25 16.51 32.63 26.34 28.06 26.34 25.38 4.57 31 4.57 32.38 16.47 36.48 9.29 36.48 9.29"/><polygon class="cls-1" points="62.05 4.57 62.05 26.34 56.17 26.34 56.17 4.57 62.05 4.57 62.05 4.57"/><path class="cls-1" d="M66.94,18.39c3.16,2.21,7.04,3.34,8.96,3.34,1.63,0,2.9-.36,2.9-1.63s-.94-1.56-3.48-2.32c-4.1-1.23-8.2-2.58-8.2-7.18,0-3.55,3.26-6.38,8.81-6.38,2.65,0,4.9.62,7.15,1.49v5.11c-2.54-1.02-4.72-1.6-7.11-1.6-1.74,0-2.5.44-2.5,1.34s.98,1.27,2.97,1.92c4.1,1.34,8.74,2.9,8.74,7.62,0,3.84-3.41,6.6-9.25,6.6-4.03,0-6.96-1.38-8.99-2.57v-5.73h0Z"/><path class="cls-1" d="M87.98,18.39c3.16,2.21,7.04,3.34,8.96,3.34,1.63,0,2.9-.36,2.9-1.63s-.94-1.56-3.48-2.32c-4.1-1.23-8.2-2.58-8.2-7.18,0-3.55,3.26-6.38,8.81-6.38,2.65,0,4.9.62,7.15,1.49v5.11c-2.54-1.02-4.72-1.6-7.11-1.6-1.74,0-2.5.44-2.5,1.34s.98,1.27,2.97,1.92c4.1,1.34,8.74,2.9,8.74,7.62,0,3.84-3.41,6.6-9.25,6.6-4.03,0-6.96-1.38-8.99-2.57v-5.73h0Z"/><polygon class="cls-1" points="125.37 21.4 125.37 26.34 110.28 26.34 110.28 4.57 116.16 4.57 116.16 21.4 125.37 21.4 125.37 21.4"/><path class="cls-1" d="M137.59,26.7c-7.51,0-10.16-4.57-10.16-11.24s2.65-11.24,10.16-11.24,10.16,4.57,10.16,11.24-2.65,11.24-10.16,11.24h0ZM137.59,8.96c-3.41,0-4.28,2.5-4.28,6.49s.87,6.53,4.28,6.53,4.28-2.5,4.28-6.53-.87-6.49-4.28-6.49h0Z"/><path class="cls-1" d="M151.27,18.39c3.15,2.21,7.04,3.34,8.96,3.34,1.63,0,2.9-.36,2.9-1.63s-.94-1.56-3.48-2.32c-4.1-1.23-8.2-2.58-8.2-7.18,0-3.55,3.26-6.38,8.81-6.38,2.65,0,4.9.62,7.15,1.49v5.11c-2.54-1.02-4.71-1.6-7.11-1.6-1.74,0-2.5.44-2.5,1.34s.98,1.27,2.97,1.92c4.1,1.34,8.74,2.9,8.74,7.62,0,3.84-3.41,6.6-9.25,6.6-4.03,0-6.96-1.38-8.99-2.57v-5.73h0Z"/><path class="cls-2" d="M171.62,13.86V2.81l-2.68-1.04c-2.13-.82-5.04-1.77-8.66-1.77s-6.7.94-9.03,2.72c-.88.67-1.63,1.45-2.22,2.3-2.43-3.26-6.31-5.02-11.41-5.02-9.12,0-14.35,5.63-14.35,15.44,0,.6.02,1.18.06,1.75h-2.94V.36h-14.27v1.58l-.45-.17c-2.13-.82-5.04-1.77-8.66-1.77s-6.7.94-9.03,2.72c-.23.18-.11.08-.32.25l-.36-.15-2.66-1.05c-2.13-.82-5.04-1.77-8.66-1.77s-6.7.94-9.03,2.72c-.23.18-.45.36-.66.55V.36h-24.48l-.43,3.71-.12,1h-5.94l-.12-1-.43-3.71h-14.11l.12,1c-1.99-.7-4.53-1.36-7.56-1.36-3.58,0-6.7.94-9.03,2.72C1.65,4.65.04,7.53,0,10.58v.12l.02,15.81,2.07,1.22c3.6,2.12,7.24,3.16,11.13,3.16,5.03,0,8.55-1.59,10.72-3.9l.44,3.54h10.72l1.21-2.11,1.98-3.46,1.98,3.46,1.21,2.11h24.8v-2.01c3.14,1.59,6.32,2.37,9.69,2.37,4.46,0,7.73-1.25,9.93-3.14,3.6,2.12,7.23,3.14,11.1,3.14s6.94-.98,9.11-2.5v2.14h23.48v-1.61c2.17,1.29,4.86,1.97,8.02,1.97,4.44,0,7.95-1.34,10.39-3.83l1.15.68c3.6,2.12,7.24,3.16,11.13,3.16,9.29,0,13.45-5.42,13.45-10.8,0-2.64-.83-4.65-2.1-6.22M4.21,18.38c3.16,2.21,7.04,3.34,8.96,3.34,1.63,0,2.9-.36,2.9-1.63s-.94-1.56-3.48-2.32c-4.1-1.23-8.2-2.57-8.2-7.18,0-3.56,3.26-6.38,8.81-6.38,2.65,0,4.9.62,7.14,1.49v5.11c-2.54-1.02-4.71-1.6-7.11-1.6-1.74,0-2.5.44-2.5,1.34s.98,1.27,2.97,1.92c4.1,1.34,8.74,2.9,8.74,7.62,0,3.84-3.41,6.6-9.25,6.6-4.03,0-6.96-1.38-9-2.57v-5.73h0ZM36.49,9.28h3.55l4.1,7.18,1.38-11.9h5.62l-2.68,21.76h-4.57l-5.62-9.83-5.62,9.83h-4.57l-2.68-21.76h5.62l1.38,11.9,4.1-7.18h0ZM62.06,26.32h-5.88V4.56h5.88v21.76h0ZM66.96,18.38c3.16,2.21,7.04,3.34,8.96,3.34,1.63,0,2.9-.36,2.9-1.63s-.94-1.56-3.48-2.32c-4.1-1.23-8.2-2.57-8.2-7.18,0-3.56,3.26-6.38,8.81-6.38,2.65,0,4.9.62,7.15,1.49v5.11c-2.54-1.02-4.71-1.6-7.11-1.6-1.74,0-2.5.44-2.5,1.34s.98,1.27,2.97,1.92c4.1,1.34,8.74,2.9,8.74,7.62,0,3.84-3.41,6.6-9.25,6.6-4.03,0-6.96-1.38-8.99-2.57v-5.73h0ZM87.99,18.38c3.16,2.21,7.04,3.34,8.96,3.34,1.63,0,2.9-.36,2.9-1.63s-.94-1.56-3.48-2.32c-4.1-1.23-8.2-2.57-8.2-7.18,0-3.56,3.26-6.38,8.81-6.38,2.65,0,4.9.62,7.15,1.49v5.11c-2.54-1.02-4.71-1.6-7.11-1.6-1.74,0-2.5.44-2.5,1.34s.98,1.27,2.97,1.92c4.1,1.34,8.74,2.9,8.74,7.62,0,3.84-3.41,6.6-9.25,6.6-4.03,0-6.96-1.38-8.99-2.57v-5.73h0ZM125.38,21.39v4.93h-15.09V4.56h5.88v16.83h9.21ZM137.61,26.68c-7.51,0-10.16-4.57-10.16-11.24s2.65-11.24,10.16-11.24,10.16,4.57,10.16,11.24-2.65,11.24-10.16,11.24M137.61,8.95c-3.41,0-4.28,2.5-4.28,6.49s.87,6.53,4.28,6.53,4.28-2.5,4.28-6.53-.87-6.49-4.28-6.49M151.28,18.38c3.15,2.21,7.04,3.34,8.96,3.34,1.63,0,2.9-.36,2.9-1.63s-.94-1.56-3.48-2.32c-4.1-1.23-8.2-2.57-8.2-7.18,0-3.56,3.26-6.38,8.81-6.38,2.65,0,4.9.62,7.15,1.49v5.11c-2.54-1.02-4.71-1.6-7.11-1.6-1.74,0-2.5.44-2.5,1.34s.98,1.27,2.97,1.92c4.1,1.34,8.74,2.9,8.74,7.62,0,3.84-3.41,6.6-9.25,6.6-4.03,0-6.96-1.38-8.99-2.57v-5.73h0Z"/><path class="cls-3" d="M84.71,38.73h7.93l-.44,2.24h-4.83l-.59,2.6h4.65l-.46,2.24h-4.59l-1,4.77h-3.19l2.51-11.86Z"/><path class="cls-3" d="M102.78,45.49c0,.92-.14,1.71-.42,2.38-.28.67-.68,1.22-1.19,1.66-.51.44-1.11.76-1.81.96s-1.46.31-2.28.31-1.52-.11-2.1-.32c-.58-.22-1.06-.5-1.44-.87-.37-.36-.65-.79-.82-1.28s-.25-1.02-.25-1.57c0-.78.14-1.49.41-2.13.27-.64.65-1.19,1.15-1.65.49-.46,1.09-.81,1.79-1.06.7-.25,1.49-.37,2.36-.37.75,0,1.41.1,1.99.31.58.2,1.06.48,1.44.84.39.36.68.78.88,1.26.2.48.3,1,.3,1.55ZM99.62,45.46c0-.23-.03-.45-.09-.66-.06-.21-.15-.4-.27-.57s-.29-.3-.49-.4c-.2-.1-.45-.15-.75-.15-.37,0-.71.09-1,.27s-.54.42-.75.7c-.2.29-.36.61-.48.97-.11.36-.17.71-.17,1.06,0,.6.15,1.08.44,1.44.29.36.7.54,1.22.53.71,0,1.28-.28,1.7-.84.42-.56.63-1.34.63-2.35Z"/><path class="cls-3" d="M105.21,44.05c.08-.38.15-.77.21-1.15.06-.38.12-.77.16-1.16h2.84l-.24,1.44h.03c.21-.25.44-.47.67-.67.23-.2.48-.37.76-.52.27-.15.57-.26.89-.34s.69-.12,1.1-.12c.44,0,.84.08,1.18.24.35.16.63.37.87.65.23.27.41.59.53.97.12.37.18.78.18,1.21,0,.15,0,.28,0,.41,0,.12-.02.26-.03.4s-.04.29-.08.46-.07.37-.12.6l-.82,4.13h-3.16l.85-4.14c.05-.23.09-.45.14-.67.05-.22.07-.44.07-.67,0-.26-.09-.5-.28-.71s-.49-.32-.91-.31c-.33,0-.62.07-.88.2s-.48.31-.66.53-.34.48-.47.77c-.12.3-.22.61-.27.93l-.87,4.08h-3.06l1.38-6.54Z"/><path class="cls-3" d="M122.57,49.18h-.03c-.19.25-.39.47-.59.67-.2.2-.43.37-.67.51-.24.14-.52.25-.84.32-.32.07-.69.11-1.1.11-.48,0-.91-.1-1.32-.29-.4-.19-.75-.46-1.04-.79s-.52-.72-.69-1.16c-.16-.44-.25-.91-.25-1.41,0-.73.09-1.42.27-2.1.18-.67.46-1.27.83-1.79.37-.52.84-.94,1.4-1.25.56-.31,1.22-.47,1.98-.47s1.43.15,1.95.46c.52.31.89.7,1.12,1.17h.03l1.07-5.32h3.01l-2.38,11.42c-.06.26-.1.5-.12.72-.02.22-.05.42-.07.6h-2.8l.24-1.41ZM120.65,48.45c.36,0,.69-.09.97-.27.28-.18.52-.41.72-.68.2-.27.35-.57.46-.89.11-.32.16-.63.16-.93,0-.21-.03-.43-.09-.65s-.14-.41-.26-.58c-.12-.17-.27-.31-.46-.42s-.41-.16-.65-.16c-.36,0-.69.08-.97.24-.28.16-.52.37-.72.62s-.35.55-.46.88-.16.67-.16,1.01c0,.54.12.98.37,1.32.24.33.61.5,1.1.5Z"/><path class="cls-3" d="M127.88,48.24c.78.34,1.61.51,2.48.51.12,0,.28,0,.48-.02.19-.01.38-.04.57-.09.19-.05.35-.13.48-.24.13-.11.2-.25.2-.43,0-.22-.09-.38-.27-.5-.18-.12-.41-.23-.68-.32-.27-.1-.56-.2-.87-.31s-.6-.27-.88-.46c-.27-.19-.5-.44-.68-.75-.18-.31-.27-.7-.27-1.19,0-.52.14-.97.41-1.33.27-.37.62-.67,1.05-.9.43-.23.91-.4,1.44-.51.53-.11,1.05-.16,1.56-.16.38,0,.83.04,1.34.13.51.09,1.04.22,1.6.4l-.65,2c-.4-.16-.79-.28-1.17-.37-.39-.08-.81-.13-1.27-.13-.17,0-.34.01-.51.03-.17.02-.32.06-.46.12-.14.06-.25.14-.33.24-.09.1-.13.23-.13.37,0,.17.09.31.28.42s.42.22.7.33.59.22.93.35c.33.12.64.27.93.45.28.18.52.39.7.65.19.25.28.57.28.94,0,.54-.11,1.02-.32,1.44-.22.41-.51.76-.88,1.03s-.81.48-1.32.62c-.5.14-1.04.22-1.62.23-.68.01-1.35-.03-2.01-.12-.66-.09-1.23-.2-1.71-.34l.61-2.09Z"/><path class="cls-3" d="M148.11,49.18h-.03c-.19.25-.39.47-.59.67-.2.2-.43.37-.67.51-.24.14-.52.25-.84.32-.32.07-.69.11-1.1.11-.48,0-.91-.1-1.32-.29-.4-.19-.75-.46-1.04-.79s-.52-.72-.69-1.16c-.16-.44-.25-.91-.25-1.41,0-.73.09-1.42.27-2.1.18-.67.46-1.27.83-1.79.37-.52.84-.94,1.4-1.25.56-.31,1.22-.47,1.98-.47s1.43.15,1.95.46c.52.31.89.7,1.12,1.17h.03l1.07-5.32h3.01l-2.38,11.42c-.06.26-.1.5-.12.72-.02.22-.05.42-.07.6h-2.8l.24-1.41ZM146.19,48.45c.36,0,.69-.09.97-.27.28-.18.52-.41.72-.68.2-.27.35-.57.46-.89.11-.32.16-.63.16-.93,0-.21-.03-.43-.09-.65s-.14-.41-.26-.58c-.12-.17-.27-.31-.46-.42s-.41-.16-.65-.16c-.36,0-.69.08-.97.24-.28.16-.52.37-.72.62s-.35.55-.46.88-.16.67-.16,1.01c0,.54.12.98.37,1.32.24.33.61.5,1.1.5Z"/><path class="cls-3" d="M161.02,50.3c-.54.16-1.09.28-1.62.36-.54.09-1.03.13-1.47.13-.74,0-1.39-.11-1.95-.32-.57-.22-1.04-.5-1.43-.87s-.68-.79-.87-1.28c-.2-.49-.3-1.02-.3-1.57,0-.51.09-1.07.27-1.68.18-.61.48-1.18.9-1.7.42-.52.97-.96,1.64-1.31.67-.35,1.5-.53,2.49-.53.58,0,1.12.08,1.61.23.5.15.93.39,1.3.7s.65.71.86,1.2c.2.49.31,1.06.31,1.73,0,.09,0,.2-.02.34-.01.14-.03.28-.05.43-.02.15-.05.31-.07.46-.02.15-.05.3-.08.43h-6.27c.01.24.05.46.13.67.07.21.2.39.37.54.18.15.42.27.72.36.31.09.69.13,1.16.13.41,0,.86-.05,1.37-.15.5-.1.97-.25,1.4-.46l-.39,2.16ZM160.2,45.32c0-.24-.03-.46-.08-.67-.05-.21-.14-.4-.25-.56-.12-.16-.27-.29-.46-.38s-.42-.14-.7-.14c-.33,0-.62.05-.88.15-.25.1-.48.24-.66.4-.19.16-.34.35-.46.56-.12.21-.21.42-.26.64h3.75Z"/><path class="cls-3" d="M164.09,48.24c.78.34,1.61.51,2.48.51.12,0,.28,0,.48-.02.19-.01.38-.04.57-.09.19-.05.35-.13.48-.24.13-.11.2-.25.2-.43,0-.22-.09-.38-.27-.5-.18-.12-.41-.23-.68-.32-.27-.1-.56-.2-.87-.31s-.6-.27-.88-.46c-.27-.19-.5-.44-.68-.75-.18-.31-.27-.7-.27-1.19,0-.52.14-.97.41-1.33.27-.37.62-.67,1.05-.9.43-.23.91-.4,1.44-.51.53-.11,1.05-.16,1.56-.16.38,0,.83.04,1.34.13.51.09,1.04.22,1.6.4l-.65,2c-.4-.16-.79-.28-1.17-.37-.39-.08-.81-.13-1.27-.13-.17,0-.34.01-.51.03-.17.02-.32.06-.46.12-.14.06-.25.14-.33.24-.09.1-.13.23-.13.37,0,.17.09.31.28.42s.42.22.7.33.59.22.93.35c.33.12.64.27.93.45.28.18.52.39.7.65.19.25.28.57.28.94,0,.54-.11,1.02-.32,1.44-.22.41-.51.76-.88,1.03s-.81.48-1.32.62c-.5.14-1.04.22-1.62.23-.68.01-1.35-.03-2.01-.12-.66-.09-1.23-.2-1.71-.34l.61-2.09Z"/><path class="cls-3" d="M4.3,58.42h3.19l-1.02,4.84h.03l4.28-4.84h4.09l-5.64,5.76,3.5,6.1h-3.65l-2.92-5.39h-.03l-1.14,5.39H1.8l2.5-11.86Z"/><path class="cls-3" d="M19.96,69.04l-.03-.03v.03c-.33.51-.76.88-1.28,1.1-.53.23-1.09.34-1.69.34-.96,0-1.7-.21-2.2-.64-.5-.42-.76-1.07-.76-1.93,0-.54.13-1.02.38-1.43s.6-.74,1.04-1.01c.44-.27.96-.47,1.55-.6.59-.14,1.22-.2,1.9-.2.31,0,.6,0,.89.03.29.02.54.04.76.06.02-.06.03-.11.03-.17v-.19c0-.32-.14-.59-.43-.81s-.69-.33-1.2-.33c-.56,0-1.04.05-1.47.15-.42.1-.89.28-1.4.54l.31-2.23c.45-.16.93-.28,1.44-.37.51-.09,1.11-.14,1.8-.14.52,0,1.02.05,1.49.16.47.11.88.28,1.22.53s.62.55.82.93.31.84.31,1.38c0,.35-.04.74-.13,1.16-.09.42-.19.89-.31,1.38-.12.5-.24,1.04-.37,1.62s-.24,1.21-.31,1.88h-2.5l.14-1.24ZM16.89,67.56c0,.2.09.4.27.59.18.19.44.29.76.29.66,0,1.18-.2,1.56-.59.39-.4.63-.89.75-1.49-.12-.02-.27-.04-.43-.04-.16,0-.29,0-.38,0-.74-.02-1.34.08-1.82.31-.48.23-.71.55-.71.94Z"/><path class="cls-3" d="M26,63.74c.08-.38.15-.77.21-1.15.06-.38.12-.77.16-1.16h2.84l-.24,1.44h.03c.21-.25.44-.47.67-.67.23-.2.48-.37.76-.52.27-.15.57-.26.89-.34s.69-.12,1.1-.12c.44,0,.84.08,1.18.24.35.16.63.37.87.65.23.27.41.59.53.97.12.37.18.78.18,1.21,0,.15,0,.28,0,.41,0,.12-.02.26-.03.4s-.04.29-.08.46-.07.37-.12.6l-.82,4.13h-3.16l.85-4.14c.05-.23.09-.45.14-.67.05-.22.07-.44.07-.67,0-.26-.09-.5-.28-.71s-.49-.32-.91-.31c-.33,0-.62.07-.88.2s-.48.31-.66.53-.34.48-.47.77c-.12.3-.22.61-.27.93l-.87,4.08h-3.06l1.38-6.54Z"/><path class="cls-3" d="M37.23,61.43h1.75l.42-1.9,3.23-.87-.61,2.77h2.11l-.37,2.14h-2.23l-.53,2.46c-.07.33-.13.61-.18.85-.05.24-.08.46-.08.68,0,.3.09.53.27.71.18.18.42.27.73.27.16,0,.32-.03.49-.09.17-.06.33-.11.49-.17l-.34,2.02c-.33.06-.65.1-.97.13-.32.03-.63.04-.93.04-.4,0-.76-.05-1.1-.14-.34-.1-.63-.25-.88-.47-.25-.21-.45-.49-.59-.82-.15-.33-.22-.72-.22-1.19,0-.23.02-.47.06-.72.04-.25.11-.62.21-1.1l.53-2.48h-1.63l.37-2.14Z"/><path class="cls-3" d="M54.9,65.18c0,.92-.14,1.71-.42,2.38-.28.67-.68,1.22-1.19,1.66-.51.44-1.11.76-1.81.96s-1.46.31-2.29.31-1.51-.11-2.1-.32c-.58-.22-1.06-.5-1.44-.87s-.65-.79-.82-1.28c-.17-.49-.25-1.02-.25-1.57,0-.78.14-1.49.41-2.13.27-.64.65-1.19,1.15-1.65.49-.46,1.09-.81,1.79-1.06.7-.25,1.49-.37,2.36-.37.75,0,1.41.1,1.99.31.58.2,1.06.48,1.44.84.39.36.68.78.88,1.26.2.48.3,1,.3,1.55ZM51.74,65.15c0-.23-.03-.45-.08-.66-.06-.21-.15-.4-.27-.57-.12-.16-.29-.3-.49-.4-.2-.1-.45-.15-.75-.15-.37,0-.71.09-1,.27-.3.18-.54.42-.75.7s-.36.61-.48.97c-.11.36-.17.71-.17,1.06,0,.6.15,1.08.44,1.44.29.36.7.54,1.22.53.71,0,1.28-.28,1.7-.84.42-.56.63-1.34.63-2.35Z"/><path class="cls-3" d="M57.32,63.74c.08-.38.15-.77.21-1.15.06-.38.12-.77.16-1.16h2.84l-.24,1.44h.03c.21-.25.44-.47.67-.67.23-.2.48-.37.76-.52.27-.15.57-.26.89-.34s.69-.12,1.1-.12c.44,0,.84.08,1.18.24.35.16.63.37.87.65.23.27.41.59.53.97.12.37.18.78.18,1.21,0,.15,0,.28,0,.41,0,.12-.02.26-.03.4s-.04.29-.08.46-.07.37-.12.6l-.82,4.13h-3.16l.85-4.14c.05-.23.09-.45.14-.67.05-.22.07-.44.07-.67,0-.26-.09-.5-.28-.71s-.49-.32-.91-.31c-.33,0-.62.07-.88.2s-.48.31-.66.53-.34.48-.47.77c-.12.3-.22.61-.27.93l-.87,4.08h-3.06l1.38-6.54Z"/><path class="cls-3" d="M68.1,67.93c.78.34,1.61.51,2.48.51.12,0,.28,0,.48-.02.19-.01.38-.04.57-.09.19-.05.35-.13.48-.24.13-.11.2-.25.2-.43,0-.22-.09-.38-.27-.5-.18-.12-.41-.23-.68-.32s-.56-.2-.88-.31-.6-.27-.87-.46c-.27-.19-.5-.44-.68-.75-.18-.31-.27-.7-.27-1.19,0-.52.14-.97.41-1.33s.62-.67,1.05-.9c.43-.23.91-.4,1.44-.51s1.05-.16,1.56-.16c.39,0,.83.04,1.34.13.51.09,1.04.22,1.6.4l-.65,2c-.4-.16-.79-.28-1.17-.37-.39-.08-.81-.13-1.27-.13-.17,0-.34.01-.51.03-.17.02-.32.06-.46.12-.14.06-.25.14-.33.24-.09.1-.13.23-.13.37,0,.17.09.31.28.42.19.11.42.22.71.33.28.11.59.22.93.35s.64.27.93.45c.28.18.52.39.7.65s.28.57.28.94c0,.54-.11,1.02-.32,1.44-.22.41-.51.76-.88,1.03-.37.27-.81.48-1.32.62-.5.14-1.04.22-1.62.23-.68.01-1.35-.03-2.01-.12s-1.23-.2-1.71-.34l.61-2.09Z"/><path class="cls-3" d="M91.15,61.1c-.31-.15-.67-.27-1.1-.38s-.93-.16-1.52-.16c-.32,0-.61.01-.89.04-.28.03-.52.08-.72.17-.2.08-.37.2-.48.35-.12.15-.18.34-.18.58,0,.28.11.51.34.68.23.17.51.33.85.48.34.15.71.3,1.11.46.4.16.77.36,1.11.61.34.25.62.57.85.95.23.39.34.88.34,1.48,0,.82-.17,1.49-.52,2.02s-.8.95-1.35,1.27-1.18.53-1.86.65c-.69.12-1.37.19-2.06.19-.61,0-1.25-.06-1.9-.19-.66-.12-1.25-.27-1.77-.42l.75-2.41c.16.1.35.2.58.28s.47.16.73.21c.26.06.53.1.81.14.28.03.55.05.81.05s.52-.02.82-.05.57-.1.82-.2c.25-.1.47-.24.64-.42s.25-.43.25-.74-.11-.57-.34-.76c-.23-.19-.51-.36-.85-.51-.34-.15-.71-.3-1.11-.45s-.77-.34-1.11-.57c-.34-.23-.62-.52-.85-.88-.23-.36-.34-.81-.34-1.37,0-.76.15-1.39.46-1.9.31-.51.71-.92,1.21-1.22.5-.31,1.06-.52,1.7-.65.63-.13,1.27-.2,1.92-.2.74,0,1.43.04,2.07.12.65.08,1.17.22,1.56.41l-.76,2.36Z"/><path class="cls-3" d="M102.77,65.18c0,.92-.14,1.71-.42,2.38-.28.67-.68,1.22-1.19,1.66-.51.44-1.11.76-1.81.96s-1.46.31-2.28.31-1.52-.11-2.1-.32c-.58-.22-1.06-.5-1.44-.87-.37-.36-.65-.79-.82-1.28s-.25-1.02-.25-1.57c0-.78.14-1.49.41-2.13.27-.64.65-1.19,1.15-1.65.49-.46,1.09-.81,1.79-1.06.7-.25,1.49-.37,2.36-.37.75,0,1.41.1,1.99.31.58.2,1.06.48,1.44.84.39.36.68.78.88,1.26.2.48.3,1,.3,1.55ZM99.61,65.15c0-.23-.03-.45-.09-.66-.06-.21-.15-.4-.27-.57s-.29-.3-.49-.4c-.2-.1-.45-.15-.75-.15-.37,0-.71.09-1,.27s-.54.42-.75.7c-.2.29-.36.61-.48.97-.11.36-.17.71-.17,1.06,0,.6.15,1.08.44,1.44.29.36.7.54,1.22.53.71,0,1.28-.28,1.7-.84.42-.56.63-1.34.63-2.35Z"/><path class="cls-3" d="M106.63,57.54h3.09l-2.65,12.74h-3.09l2.65-12.74Z"/><path class="cls-3" d="M120.34,65.18c0,.92-.14,1.71-.42,2.38-.28.67-.68,1.22-1.19,1.66-.51.44-1.11.76-1.81.96s-1.46.31-2.29.31-1.51-.11-2.1-.32c-.58-.22-1.06-.5-1.44-.87s-.65-.79-.82-1.28c-.17-.49-.25-1.02-.25-1.57,0-.78.14-1.49.41-2.13.27-.64.65-1.19,1.15-1.65.49-.46,1.09-.81,1.79-1.06.7-.25,1.49-.37,2.36-.37.75,0,1.41.1,1.99.31.58.2,1.06.48,1.44.84.39.36.68.78.88,1.26.2.48.3,1,.3,1.55ZM117.18,65.15c0-.23-.03-.45-.08-.66-.06-.21-.15-.4-.27-.57-.12-.16-.29-.3-.49-.4-.2-.1-.45-.15-.75-.15-.37,0-.71.09-1,.27-.3.18-.54.42-.75.7s-.36.61-.48.97c-.11.36-.17.71-.17,1.06,0,.6.15,1.08.44,1.44.29.36.7.54,1.22.53.71,0,1.28-.28,1.7-.84.42-.56.63-1.34.63-2.35Z"/><path class="cls-3" d="M122.19,61.43h1.75l.42-1.9,3.23-.87-.61,2.77h2.11l-.37,2.14h-2.23l-.53,2.46c-.07.33-.13.61-.18.85-.05.24-.08.46-.08.68,0,.3.09.53.27.71.18.18.42.27.73.27.16,0,.32-.03.49-.09.17-.06.33-.11.49-.17l-.34,2.02c-.33.06-.65.1-.97.13-.32.03-.63.04-.93.04-.4,0-.76-.05-1.1-.14-.34-.1-.63-.25-.88-.47-.25-.21-.45-.49-.59-.82-.15-.33-.22-.72-.22-1.19,0-.23.02-.47.06-.72.04-.25.11-.62.21-1.1l.53-2.48h-1.63l.37-2.14Z"/><path class="cls-3" d="M131.96,57.54h3.09l-1.09,5.18h.03c.32-.42.73-.77,1.24-1.06s1.12-.43,1.83-.43c.44,0,.84.08,1.18.24.35.16.63.37.87.65.23.27.41.59.53.97.12.37.18.78.18,1.21,0,.15,0,.28,0,.41,0,.12-.02.26-.03.4s-.04.29-.08.46-.07.37-.12.6l-.82,4.13h-3.16l.85-4.14c.05-.23.09-.45.14-.67.05-.22.07-.44.07-.67,0-.26-.09-.5-.28-.71s-.49-.32-.91-.31c-.33,0-.62.07-.88.2s-.48.31-.66.53-.34.48-.47.77c-.12.3-.22.61-.27.93l-.87,4.08h-3.06l2.68-12.74Z"/><path class="cls-3" d="M150.75,67.97c-.08.39-.15.77-.21,1.15s-.12.77-.16,1.16h-2.84l.24-1.44h-.03c-.44.5-.92.9-1.44,1.2-.52.3-1.18.45-1.98.45-.44,0-.84-.08-1.18-.24-.35-.16-.63-.37-.87-.65-.23-.27-.41-.59-.53-.97-.12-.37-.18-.78-.18-1.21,0-.15,0-.28,0-.41,0-.12.02-.26.03-.4s.04-.29.08-.46.07-.37.12-.6l.82-4.13h3.16l-.85,4.15c-.05.23-.09.45-.14.67-.05.22-.07.44-.07.67,0,.14.02.27.07.39.05.13.12.24.21.33.1.1.22.17.36.23s.33.08.54.07c.32,0,.61-.07.87-.2s.48-.31.67-.53.34-.48.47-.77c.12-.29.22-.61.27-.93l.87-4.08h3.06l-1.38,6.54Z"/><path class="cls-3" d="M157.42,61.43l-.34,1.82h.03c.12-.26.28-.51.46-.76.18-.24.39-.46.62-.65.23-.19.49-.34.76-.45s.57-.17.89-.17c.2,0,.42.01.65.04.23.03.44.09.65.18l-.7,2.7c-.19-.16-.4-.26-.63-.31-.23-.05-.49-.07-.78-.07-.33,0-.62.07-.87.2s-.48.31-.66.53c-.19.22-.34.48-.47.77-.12.3-.22.61-.27.93l-.87,4.08h-3.06l1.38-6.54c.08-.38.15-.77.21-1.15s.12-.77.16-1.16h2.84Z"/><path class="cls-3" d="M162.21,63.74c.08-.38.15-.77.21-1.15s.12-.77.16-1.16h2.84l-.24,1.44h.03c.22-.25.44-.47.67-.67.23-.2.48-.37.76-.52.27-.15.57-.26.89-.34.32-.08.69-.12,1.1-.12.44,0,.84.08,1.18.24.35.16.63.37.87.65.23.27.41.59.53.97.12.37.18.78.18,1.21,0,.15,0,.28,0,.41,0,.12-.02.26-.03.4s-.04.29-.08.46c-.03.16-.07.37-.12.6l-.82,4.13h-3.16l.85-4.14c.05-.23.09-.45.14-.67s.07-.44.07-.67c0-.26-.09-.5-.28-.71s-.49-.32-.91-.31c-.33,0-.62.07-.87.2s-.48.31-.66.53c-.19.22-.34.48-.47.77-.12.3-.22.61-.27.93l-.87,4.08h-3.06l1.38-6.54Z"/></g></svg>