<?xml version="1.0" encoding="UTF-8"?><svg id="Ebene_2" xmlns="http://www.w3.org/2000/svg" viewBox="0 0 99.21 30.49"><defs><style>.cls-1{fill:#1d1d1b;stroke-width:0px;}</style></defs><g id="Ebene_1-2"><path class="cls-1" d="M8.38,12.3c-1.36,0-2.68.18-4.03.18H.31l-.31,1.1h3.46l-2.24,10.35c-.31,1.4-.57,2.81-.57,3.42,0,2.46,1.84,3.16,3.9,3.16,3.07,0,5.31-1.84,7.19-4.21-.04,2.54.66,4.21,3.29,4.21,3.38,0,5.79-3.29,6.93-6.23l-.96-.53c-.57,1.27-2.5,4.91-4.08,4.91-.39,0-.83-.26-.88-.7-.04-.31.13-1.32.44-2.63l2.94-12.85h-4.56l-2.24,9.38c-.53,2.19-1.45,4.6-3.42,5.88-.61.39-1.53.96-2.28.96-.88,0-1.88-.26-1.88-1.4,0-.57.31-2.06.66-3.64l2.68-11.36Z"/><path class="cls-1" d="M26.38,0h-1.46l-1.56,11.57c.44.07,1.28.12,2,.12,3.79,0,4.9-2.55,4.9-4.57s-1.07-3.44-2.65-3.44c-.7,0-1.21.22-1.83.84l-.03-.03.64-4.48ZM24.9,10.51l.65-4.63c.1-.64,1.14-.96,1.61-.96,1.01,0,1.63.79,1.63,2.17,0,2.03-1.12,3.42-3.11,3.42h-.79Z"/><path class="cls-1" d="M44.94,12.5h-1.56v3.7c0,.75-.37,1.15-.99,1.15-.7,0-.94-.4-.94-1.15v-3.7h-1.58v3.55c0,1.67.87,2.45,2.52,2.45,1.48,0,2.56-.62,2.56-2.45v-3.55Z"/><path class="cls-1" d="M52.58,12.5h-1.41v1.84c0,.67.02,1.95.05,2.39h-.02c-.17-.41-.78-1.69-.99-2.12l-1.07-2.11h-2v5.89h1.39v-1.96c0-.51-.02-1.88-.04-2.24h.02c.16.39.69,1.53,1.06,2.24l1.04,1.96h1.97v-5.89Z"/><rect class="cls-1" x="54.77" y="12.5" width="1.59" height="5.89"/><path class="cls-1" d="M63.99,12.5h-1.59l-.96,3.29c-.07.27-.29,1.05-.35,1.33h-.02c-.06-.28-.26-1.06-.35-1.33l-.99-3.29h-1.65l1.95,5.89h1.96l2-5.89Z"/><polygon class="cls-1" points="69.61 12.5 65.56 12.5 65.56 18.38 69.69 18.38 69.69 17.25 67.12 17.25 67.12 15.97 69.45 15.97 69.45 14.84 67.12 14.84 67.12 13.63 69.61 13.63 69.61 12.5"/><path class="cls-1" d="M73.8,12.5h-2.02v5.88h1.61v-2.27h.35c.59,0,.79.18,1,.81l.48,1.46h1.65l-.83-2.17c-.18-.46-.42-.67-.86-.76v-.02c.89-.16,1.31-.65,1.31-1.41,0-1.3-1.21-1.53-2.71-1.53M73.4,15.01v-1.39h.28c.83,0,1.26.14,1.26.67s-.42.72-1.26.72h-.28Z"/><path class="cls-1" d="M80.83,12.39c-1.34,0-2.4.62-2.4,1.82,0,.89.64,1.38,1.57,1.73.79.29,1.07.47,1.07.79,0,.39-.36.58-.92.58-.42,0-1.02-.12-1.58-.36l-.13,1.29c.56.17,1.15.25,1.78.25,1.52,0,2.45-.71,2.45-1.9,0-.91-.58-1.4-1.63-1.8-.8-.3-1-.43-1-.73,0-.35.4-.52.93-.52.4,0,.84.07,1.35.26l.09-1.22c-.47-.14-1-.19-1.58-.19"/><rect class="cls-1" x="84.52" y="12.5" width="1.59" height="5.89"/><polygon class="cls-1" points="92.39 12.5 87.72 12.5 87.72 13.68 89.24 13.65 89.24 18.38 90.84 18.38 90.84 13.65 92.39 13.68 92.39 12.5"/><path class="cls-1" d="M99.21,12.5h-1.74l-.56,1.19c-.19.4-.42.94-.55,1.24h-.02c-.13-.31-.36-.84-.56-1.24l-.59-1.19h-1.86l2.15,3.69v2.19h1.6v-2.15l2.11-3.74Z"/><path class="cls-1" d="M42.74,22.92c-1.86,0-3.06,1.1-3.06,3.03s1.16,3.08,2.95,3.08,3.05-1.11,3.05-3.07-1.2-3.04-2.94-3.04M42.68,27.87c-.81,0-1.37-.7-1.37-1.86,0-1.22.52-1.92,1.33-1.92.86,0,1.39.68,1.39,1.93,0,1.17-.54,1.85-1.36,1.85"/><polygon class="cls-1" points="51.19 23.03 47.36 23.03 47.36 28.92 48.94 28.92 48.94 26.6 51.1 26.6 51.1 25.46 48.94 25.46 48.94 24.17 51.19 24.17 51.19 23.03"/><path class="cls-1" d="M58.33,23.03h-2.25v5.88h2.24c1.22,0,2.52-.36,2.52-1.62,0-.76-.49-1.28-1.39-1.42v-.02c.85-.17,1.21-.71,1.21-1.33,0-1.17-1-1.5-2.33-1.5M57.63,25.44v-1.34h.35c.56,0,1.14.08,1.14.65,0,.51-.38.69-1.21.69h-.27ZM57.63,27.83v-1.38h.31c.88,0,1.31.16,1.31.64,0,.53-.42.74-1.38.74h-.24Z"/><polygon class="cls-1" points="66.68 23.03 62.64 23.03 62.64 28.92 66.77 28.92 66.77 27.78 64.2 27.78 64.2 26.51 66.53 26.51 66.53 25.38 64.2 25.38 64.2 24.16 66.68 24.16 66.68 23.03"/><path class="cls-1" d="M70.8,23.03h-2.02v5.88h1.61v-2.27h.35c.59,0,.79.18,1,.81l.48,1.46h1.65l-.83-2.17c-.18-.46-.42-.67-.86-.76v-.02c.89-.16,1.31-.65,1.31-1.41,0-1.3-1.21-1.53-2.71-1.53M70.4,25.55v-1.39h.28c.83,0,1.26.14,1.26.67s-.42.72-1.26.72h-.28Z"/><path class="cls-1" d="M80.93,23.03h-1.41v1.84c0,.67.02,1.95.05,2.39h-.02c-.17-.41-.78-1.69-.99-2.12l-1.07-2.11h-2v5.89h1.39v-1.96c0-.51-.02-1.88-.04-2.24h.02c.16.39.69,1.53,1.06,2.24l1.04,1.96h1.97v-5.89Z"/></g></svg>