<?xml version="1.0" encoding="UTF-8"?><svg id="Ebene_2" xmlns="http://www.w3.org/2000/svg" viewBox="0 0 724.68 86.33"><defs><style>.cls-1{fill:#1d1d1b;stroke-width:0px;}</style></defs><g id="Ebene_1-2"><rect class="cls-1" x="48.45" y=".69" width="37.42" height="37.42"/><rect class="cls-1" x="48.46" y="48.92" width="37.41" height="37.41"/><rect class="cls-1" x="96.81" y="48.92" width="37.42" height="37.41"/><rect class="cls-1" y=".7" width="37.41" height="37.41"/><path class="cls-1" d="M119.57,38.74c-9.65,0-14.65-6.11-14.65-15.02V.68h6.8v22.93c0,5.32,2.42,8.96,7.85,8.96s7.85-3.64,7.85-8.96V.68h6.8v23.03c0,8.91-5.01,15.02-14.65,15.02Z"/><path class="cls-1" d="M162.91,38.05l-6.22-14.12h-8.27v14.12h-6.85V.68h15.76c8.91,0,12.97,5.59,12.97,11.59,0,5.01-2.74,8.96-6.85,10.49l6.85,15.28h-7.38ZM157.32,6.64h-8.96v11.17h9.06c3.85,0,6.06-2,6.06-5.53,0-3-2.32-5.64-6.17-5.64Z"/><path class="cls-1" d="M201.66,34.73c-2.85,2.85-7.22,4.01-11.81,4.01-3.95,0-8.12-1.05-11.17-3.85-2.21-2-3.9-5.16-3.9-8.7h6.96c0,1.84.84,3.48,1.95,4.59,1.58,1.58,4.11,2,6.27,2,2.58,0,5.06-.53,6.48-2,.84-.9,1.48-1.79,1.48-3.58,0-2.74-2.11-4-4.43-4.43-2.53-.47-5.8-.58-8.27-1-5.16-.84-9.49-4.22-9.49-10.44,0-2.95,1.32-5.43,3.27-7.38,2.48-2.42,6.59-3.95,10.96-3.95,4.01,0,7.91,1.26,10.44,3.64,2.21,2.11,3.74,4.85,3.79,7.96h-6.96c-.05-1.32-.74-2.74-1.63-3.69-1.21-1.26-3.69-2-5.69-2-2.11,0-4.53.47-6.06,2.06-.79.84-1.26,1.79-1.26,3.16,0,2.42,1.58,3.69,3.79,4.06,2.37.37,5.69.63,8.12.95,5.59.79,10.28,4.43,10.28,10.8,0,3.48-1.27,5.96-3.11,7.8Z"/><path class="cls-1" d="M225.4,38.74c-9.64,0-14.65-6.11-14.65-15.02V.68h6.8v22.93c0,5.32,2.42,8.96,7.85,8.96s7.85-3.64,7.85-8.96V.68h6.8v23.03c0,8.91-5.01,15.02-14.65,15.02Z"/><path class="cls-1" d="M247.4,38.05V.68h6.8v30.94h17.34v6.43h-24.14Z"/><path class="cls-1" d="M301.79,38.05l-2.42-7.17h-14.86l-2.42,7.17h-6.85L288.35.68h7.43l13.12,37.37h-7.11ZM291.94,9.01l-5.32,15.76h10.65l-5.32-15.76Z"/><path class="cls-1" d="M357.13,38.05h-6.8l-7.8-25.77-7.8,25.77h-6.8l-7.54-37.37h6.48l5.22,25.98,7.69-25.4h5.69l7.54,25.4,5.32-25.98h6.22l-7.43,37.37Z"/><path class="cls-1" d="M370.57,38.05V.68h6.9v37.37h-6.9Z"/><path class="cls-1" d="M406.67,38.05l-6.22-14.12h-8.27v14.12h-6.85V.68h15.76c8.91,0,12.96,5.59,12.96,11.59,0,5.01-2.74,8.96-6.85,10.49l6.85,15.28h-7.38ZM401.09,6.64h-8.96v11.17h9.07c3.85,0,6.06-2,6.06-5.53,0-3-2.32-5.64-6.17-5.64Z"/><path class="cls-1" d="M419.02,38.05v-6.69l20.61-24.51h-20.29V.68h28.67v6.69l-20.45,24.51h20.71v6.17h-29.25Z"/><path class="cls-1" d="M451.25,24.77v-5.9h18.08v5.9h-18.08Z"/><path class="cls-1" d="M501.35,34.73c-2.85,2.85-7.22,4.01-11.81,4.01-3.95,0-8.12-1.05-11.17-3.85-2.21-2-3.9-5.16-3.9-8.7h6.96c0,1.84.84,3.48,1.95,4.59,1.58,1.58,4.11,2,6.27,2,2.58,0,5.06-.53,6.48-2,.84-.9,1.48-1.79,1.48-3.58,0-2.74-2.11-4-4.43-4.43-2.53-.47-5.8-.58-8.27-1-5.17-.84-9.49-4.22-9.49-10.44,0-2.95,1.32-5.43,3.27-7.38,2.48-2.42,6.59-3.95,10.96-3.95,4.01,0,7.91,1.26,10.44,3.64,2.21,2.11,3.74,4.85,3.79,7.96h-6.96c-.05-1.32-.74-2.74-1.63-3.69-1.21-1.26-3.69-2-5.69-2-2.11,0-4.53.47-6.06,2.06-.79.84-1.27,1.79-1.27,3.16,0,2.42,1.58,3.69,3.79,4.06,2.37.37,5.69.63,8.12.95,5.59.79,10.28,4.43,10.28,10.8,0,3.48-1.26,5.96-3.11,7.8Z"/><path class="cls-1" d="M526,7.01v31.04h-6.8V7.01h-11.07V.68h28.93v6.32h-11.07Z"/><path class="cls-1" d="M542.73,38.05V.68h6.9v37.37h-6.9Z"/><path class="cls-1" d="M563.28,6.85v10.01h16.97v6.17h-16.97v15.02h-6.8V.68h25.83v6.17h-19.03Z"/><path class="cls-1" d="M605.19,7.01v31.04h-6.8V7.01h-11.07V.68h28.93v6.32h-11.07Z"/><path class="cls-1" d="M636.08,38.74c-9.64,0-14.65-6.11-14.65-15.02V.68h6.8v22.93c0,5.32,2.42,8.96,7.85,8.96s7.85-3.64,7.85-8.96V.68h6.8v23.03c0,8.91-5.01,15.02-14.65,15.02Z"/><path class="cls-1" d="M680.95,38.05l-16.18-25.67v25.67h-6.69V.68h7.22l15.97,25.3V.68h6.69v37.37h-7.01Z"/><path class="cls-1" d="M720.31,38.05l-.79-4.11c-1.11,2.16-4.69,4.74-9.38,4.8-4.32.05-8.17-1.05-11.12-4.16-3.9-4.06-4.85-9.07-4.85-15.18s.79-10.96,4.85-15.02c2.85-2.85,7.12-4.37,11.12-4.37,4.58,0,8.54,1.69,11.07,4.27,1.84,1.9,3.21,4.27,3.43,7.54h-6.96c-.11-1.48-.84-2.48-1.63-3.43-1.32-1.53-3.37-2.27-5.96-2.27-2.16,0-4.64.95-6.11,2.53-2.58,2.69-2.9,7.33-2.9,10.75s.37,8.22,2.95,10.91c1.48,1.58,3.9,2.37,6.06,2.37,2.42,0,4.32-.84,5.59-2.16,2-2.11,2.42-4.43,2.42-7.27h-8.91v-5.64h15.5v20.45h-4.37Z"/></g></svg>